<mxfile host="app.diagrams.net" modified="2023-11-29T11:57:34.732Z" agent="Mozilla/5.0 (Windows NT 10.0; Win64; x64) AppleWebKit/537.36 (KHTML, like Gecko) Chrome/119.0.0.0 Safari/537.36" etag="v-WU1yqEstf_pyZbzKSK" version="22.1.4" type="github" pages="19">
  <diagram id="C5RBs43oDa-KdzZeNtuy" name="Page-1">
    <mxGraphModel dx="1050" dy="566" grid="1" gridSize="10" guides="1" tooltips="1" connect="1" arrows="1" fold="1" page="1" pageScale="1" pageWidth="827" pageHeight="1169" math="0" shadow="0">
      <root>
        <mxCell id="WIyWlLk6GJQsqaUBKTNV-0" />
        <mxCell id="WIyWlLk6GJQsqaUBKTNV-1" parent="WIyWlLk6GJQsqaUBKTNV-0" />
        <mxCell id="WIyWlLk6GJQsqaUBKTNV-2" value="" style="rounded=0;html=1;jettySize=auto;orthogonalLoop=1;fontSize=11;endArrow=block;endFill=0;endSize=8;strokeWidth=1;shadow=0;labelBackgroundColor=none;edgeStyle=orthogonalEdgeStyle;" parent="WIyWlLk6GJQsqaUBKTNV-1" source="WIyWlLk6GJQsqaUBKTNV-3" target="WIyWlLk6GJQsqaUBKTNV-6" edge="1">
          <mxGeometry relative="1" as="geometry" />
        </mxCell>
        <mxCell id="WIyWlLk6GJQsqaUBKTNV-3" value="Lamp doesn&#39;t work" style="rounded=1;whiteSpace=wrap;html=1;fontSize=12;glass=0;strokeWidth=1;shadow=0;" parent="WIyWlLk6GJQsqaUBKTNV-1" vertex="1">
          <mxGeometry x="160" y="80" width="120" height="40" as="geometry" />
        </mxCell>
        <mxCell id="WIyWlLk6GJQsqaUBKTNV-4" value="Yes" style="rounded=0;html=1;jettySize=auto;orthogonalLoop=1;fontSize=11;endArrow=block;endFill=0;endSize=8;strokeWidth=1;shadow=0;labelBackgroundColor=none;edgeStyle=orthogonalEdgeStyle;" parent="WIyWlLk6GJQsqaUBKTNV-1" source="WIyWlLk6GJQsqaUBKTNV-6" target="WIyWlLk6GJQsqaUBKTNV-10" edge="1">
          <mxGeometry y="20" relative="1" as="geometry">
            <mxPoint as="offset" />
          </mxGeometry>
        </mxCell>
        <mxCell id="WIyWlLk6GJQsqaUBKTNV-5" value="No" style="edgeStyle=orthogonalEdgeStyle;rounded=0;html=1;jettySize=auto;orthogonalLoop=1;fontSize=11;endArrow=block;endFill=0;endSize=8;strokeWidth=1;shadow=0;labelBackgroundColor=none;" parent="WIyWlLk6GJQsqaUBKTNV-1" source="WIyWlLk6GJQsqaUBKTNV-6" target="WIyWlLk6GJQsqaUBKTNV-7" edge="1">
          <mxGeometry y="10" relative="1" as="geometry">
            <mxPoint as="offset" />
          </mxGeometry>
        </mxCell>
        <mxCell id="WIyWlLk6GJQsqaUBKTNV-6" value="Lamp&lt;br&gt;plugged in?" style="rhombus;whiteSpace=wrap;html=1;shadow=0;fontFamily=Helvetica;fontSize=12;align=center;strokeWidth=1;spacing=6;spacingTop=-4;" parent="WIyWlLk6GJQsqaUBKTNV-1" vertex="1">
          <mxGeometry x="170" y="170" width="100" height="80" as="geometry" />
        </mxCell>
        <mxCell id="WIyWlLk6GJQsqaUBKTNV-7" value="Plug in lamp" style="rounded=1;whiteSpace=wrap;html=1;fontSize=12;glass=0;strokeWidth=1;shadow=0;" parent="WIyWlLk6GJQsqaUBKTNV-1" vertex="1">
          <mxGeometry x="320" y="190" width="120" height="40" as="geometry" />
        </mxCell>
        <mxCell id="WIyWlLk6GJQsqaUBKTNV-8" value="No" style="rounded=0;html=1;jettySize=auto;orthogonalLoop=1;fontSize=11;endArrow=block;endFill=0;endSize=8;strokeWidth=1;shadow=0;labelBackgroundColor=none;edgeStyle=orthogonalEdgeStyle;" parent="WIyWlLk6GJQsqaUBKTNV-1" source="WIyWlLk6GJQsqaUBKTNV-10" target="WIyWlLk6GJQsqaUBKTNV-11" edge="1">
          <mxGeometry x="0.3333" y="20" relative="1" as="geometry">
            <mxPoint as="offset" />
          </mxGeometry>
        </mxCell>
        <mxCell id="WIyWlLk6GJQsqaUBKTNV-9" value="Yes" style="edgeStyle=orthogonalEdgeStyle;rounded=0;html=1;jettySize=auto;orthogonalLoop=1;fontSize=11;endArrow=block;endFill=0;endSize=8;strokeWidth=1;shadow=0;labelBackgroundColor=none;" parent="WIyWlLk6GJQsqaUBKTNV-1" source="WIyWlLk6GJQsqaUBKTNV-10" target="WIyWlLk6GJQsqaUBKTNV-12" edge="1">
          <mxGeometry y="10" relative="1" as="geometry">
            <mxPoint as="offset" />
          </mxGeometry>
        </mxCell>
        <mxCell id="WIyWlLk6GJQsqaUBKTNV-10" value="Bulb&lt;br&gt;burned out?" style="rhombus;whiteSpace=wrap;html=1;shadow=0;fontFamily=Helvetica;fontSize=12;align=center;strokeWidth=1;spacing=6;spacingTop=-4;" parent="WIyWlLk6GJQsqaUBKTNV-1" vertex="1">
          <mxGeometry x="170" y="290" width="100" height="80" as="geometry" />
        </mxCell>
        <mxCell id="WIyWlLk6GJQsqaUBKTNV-11" value="Repair Lamp" style="rounded=1;whiteSpace=wrap;html=1;fontSize=12;glass=0;strokeWidth=1;shadow=0;" parent="WIyWlLk6GJQsqaUBKTNV-1" vertex="1">
          <mxGeometry x="160" y="430" width="120" height="40" as="geometry" />
        </mxCell>
        <mxCell id="WIyWlLk6GJQsqaUBKTNV-12" value="Replace Bulb" style="rounded=1;whiteSpace=wrap;html=1;fontSize=12;glass=0;strokeWidth=1;shadow=0;" parent="WIyWlLk6GJQsqaUBKTNV-1" vertex="1">
          <mxGeometry x="320" y="310" width="120" height="40" as="geometry" />
        </mxCell>
      </root>
    </mxGraphModel>
  </diagram>
  <diagram id="gW-bqyAXu_OtbBPx1x_1" name="h.w.1">
    <mxGraphModel dx="1050" dy="566" grid="1" gridSize="10" guides="1" tooltips="1" connect="1" arrows="1" fold="1" page="1" pageScale="1" pageWidth="827" pageHeight="1169" math="0" shadow="0">
      <root>
        <mxCell id="0" />
        <mxCell id="1" parent="0" />
        <mxCell id="IaDuWEbbKtDaoLP2hq2y-2" value="&lt;font style=&quot;font-size: 15px;&quot;&gt;start&lt;/font&gt;" style="rounded=1;whiteSpace=wrap;html=1;" vertex="1" parent="1">
          <mxGeometry x="160" y="20" width="120" height="40" as="geometry" />
        </mxCell>
        <mxCell id="IaDuWEbbKtDaoLP2hq2y-7" value="" style="edgeStyle=orthogonalEdgeStyle;rounded=0;orthogonalLoop=1;jettySize=auto;html=1;" edge="1" parent="1" source="IaDuWEbbKtDaoLP2hq2y-4" target="IaDuWEbbKtDaoLP2hq2y-6">
          <mxGeometry relative="1" as="geometry" />
        </mxCell>
        <mxCell id="IaDuWEbbKtDaoLP2hq2y-4" value="a,b,c" style="shape=card;whiteSpace=wrap;html=1;" vertex="1" parent="1">
          <mxGeometry x="145" y="120" width="150" height="60" as="geometry" />
        </mxCell>
        <mxCell id="IaDuWEbbKtDaoLP2hq2y-5" style="edgeStyle=orthogonalEdgeStyle;rounded=0;orthogonalLoop=1;jettySize=auto;html=1;" edge="1" parent="1" source="IaDuWEbbKtDaoLP2hq2y-2">
          <mxGeometry relative="1" as="geometry">
            <mxPoint x="220" y="120" as="targetPoint" />
          </mxGeometry>
        </mxCell>
        <mxCell id="IaDuWEbbKtDaoLP2hq2y-8" style="edgeStyle=orthogonalEdgeStyle;rounded=0;orthogonalLoop=1;jettySize=auto;html=1;" edge="1" parent="1" source="IaDuWEbbKtDaoLP2hq2y-6" target="IaDuWEbbKtDaoLP2hq2y-9">
          <mxGeometry relative="1" as="geometry">
            <mxPoint x="220" y="330" as="targetPoint" />
          </mxGeometry>
        </mxCell>
        <mxCell id="IaDuWEbbKtDaoLP2hq2y-6" value="sum=a+b+c&lt;br&gt;avg=sum/2" style="rounded=0;whiteSpace=wrap;html=1;" vertex="1" parent="1">
          <mxGeometry x="110" y="220" width="220" height="60" as="geometry" />
        </mxCell>
        <mxCell id="IaDuWEbbKtDaoLP2hq2y-10" style="edgeStyle=orthogonalEdgeStyle;rounded=0;orthogonalLoop=1;jettySize=auto;html=1;exitX=0.47;exitY=0.83;exitDx=0;exitDy=0;exitPerimeter=0;" edge="1" parent="1" source="IaDuWEbbKtDaoLP2hq2y-9" target="IaDuWEbbKtDaoLP2hq2y-11">
          <mxGeometry relative="1" as="geometry">
            <mxPoint x="220" y="460" as="targetPoint" />
          </mxGeometry>
        </mxCell>
        <mxCell id="IaDuWEbbKtDaoLP2hq2y-9" value="avg" style="shape=document;whiteSpace=wrap;html=1;boundedLbl=1;" vertex="1" parent="1">
          <mxGeometry x="120" y="310" width="200" height="80" as="geometry" />
        </mxCell>
        <mxCell id="IaDuWEbbKtDaoLP2hq2y-11" value="stop" style="rounded=1;whiteSpace=wrap;html=1;" vertex="1" parent="1">
          <mxGeometry x="160" y="430" width="120" height="60" as="geometry" />
        </mxCell>
      </root>
    </mxGraphModel>
  </diagram>
  <diagram id="k0_OMZY7XKuBILns342V" name="h.w.2">
    <mxGraphModel dx="1050" dy="566" grid="1" gridSize="10" guides="1" tooltips="1" connect="1" arrows="1" fold="1" page="1" pageScale="1" pageWidth="827" pageHeight="1169" math="0" shadow="0">
      <root>
        <mxCell id="0" />
        <mxCell id="1" parent="0" />
        <mxCell id="8d2QzJ6GzmwEjY5s-FHR-3" value="" style="edgeStyle=orthogonalEdgeStyle;rounded=0;orthogonalLoop=1;jettySize=auto;html=1;" edge="1" parent="1" source="8d2QzJ6GzmwEjY5s-FHR-1">
          <mxGeometry relative="1" as="geometry">
            <mxPoint x="290" y="150" as="targetPoint" />
          </mxGeometry>
        </mxCell>
        <mxCell id="8d2QzJ6GzmwEjY5s-FHR-1" value="start" style="rounded=1;whiteSpace=wrap;html=1;" vertex="1" parent="1">
          <mxGeometry x="230" y="40" width="120" height="60" as="geometry" />
        </mxCell>
        <mxCell id="8d2QzJ6GzmwEjY5s-FHR-7" style="edgeStyle=orthogonalEdgeStyle;rounded=0;orthogonalLoop=1;jettySize=auto;html=1;" edge="1" parent="1" source="8d2QzJ6GzmwEjY5s-FHR-4" target="8d2QzJ6GzmwEjY5s-FHR-8">
          <mxGeometry relative="1" as="geometry">
            <mxPoint x="290" y="380" as="targetPoint" />
          </mxGeometry>
        </mxCell>
        <mxCell id="8d2QzJ6GzmwEjY5s-FHR-4" value="area=a*b&lt;br&gt;peri= (a+b)*2" style="rounded=0;whiteSpace=wrap;html=1;" vertex="1" parent="1">
          <mxGeometry x="230" y="270" width="120" height="60" as="geometry" />
        </mxCell>
        <mxCell id="8d2QzJ6GzmwEjY5s-FHR-5" value="a,b" style="shape=card;whiteSpace=wrap;html=1;" vertex="1" parent="1">
          <mxGeometry x="210" y="150" width="150" height="70" as="geometry" />
        </mxCell>
        <mxCell id="8d2QzJ6GzmwEjY5s-FHR-6" style="edgeStyle=orthogonalEdgeStyle;rounded=0;orthogonalLoop=1;jettySize=auto;html=1;entryX=0.458;entryY=0.167;entryDx=0;entryDy=0;entryPerimeter=0;" edge="1" parent="1" source="8d2QzJ6GzmwEjY5s-FHR-5" target="8d2QzJ6GzmwEjY5s-FHR-4">
          <mxGeometry relative="1" as="geometry" />
        </mxCell>
        <mxCell id="8d2QzJ6GzmwEjY5s-FHR-9" style="edgeStyle=orthogonalEdgeStyle;rounded=0;orthogonalLoop=1;jettySize=auto;html=1;" edge="1" parent="1" source="8d2QzJ6GzmwEjY5s-FHR-8" target="8d2QzJ6GzmwEjY5s-FHR-10">
          <mxGeometry relative="1" as="geometry">
            <mxPoint x="290" y="530" as="targetPoint" />
          </mxGeometry>
        </mxCell>
        <mxCell id="8d2QzJ6GzmwEjY5s-FHR-8" value="area&lt;br&gt;prerimeter" style="shape=document;whiteSpace=wrap;html=1;boundedLbl=1;" vertex="1" parent="1">
          <mxGeometry x="230" y="380" width="120" height="80" as="geometry" />
        </mxCell>
        <mxCell id="8d2QzJ6GzmwEjY5s-FHR-10" value="stop" style="rounded=1;whiteSpace=wrap;html=1;" vertex="1" parent="1">
          <mxGeometry x="230" y="500" width="120" height="60" as="geometry" />
        </mxCell>
      </root>
    </mxGraphModel>
  </diagram>
  <diagram id="dKk3pH71b3V7ZN5-7KA2" name="h.w.3">
    <mxGraphModel dx="1050" dy="566" grid="1" gridSize="10" guides="1" tooltips="1" connect="1" arrows="1" fold="1" page="1" pageScale="1" pageWidth="827" pageHeight="1169" math="0" shadow="0">
      <root>
        <mxCell id="0" />
        <mxCell id="1" parent="0" />
        <mxCell id="UIg1ygmlC4a9c9u-8uv8-1" value="start" style="rounded=1;whiteSpace=wrap;html=1;" vertex="1" parent="1">
          <mxGeometry x="260" y="50" width="120" height="60" as="geometry" />
        </mxCell>
        <mxCell id="UIg1ygmlC4a9c9u-8uv8-12" style="edgeStyle=orthogonalEdgeStyle;rounded=0;orthogonalLoop=1;jettySize=auto;html=1;entryX=0.5;entryY=0;entryDx=0;entryDy=0;" edge="1" parent="1" source="UIg1ygmlC4a9c9u-8uv8-3" target="UIg1ygmlC4a9c9u-8uv8-9">
          <mxGeometry relative="1" as="geometry" />
        </mxCell>
        <mxCell id="UIg1ygmlC4a9c9u-8uv8-3" value="&lt;font style=&quot;font-size: 15px;&quot;&gt;v=3.14*a*a*b&lt;/font&gt;" style="rounded=0;whiteSpace=wrap;html=1;" vertex="1" parent="1">
          <mxGeometry x="260" y="290" width="120" height="60" as="geometry" />
        </mxCell>
        <mxCell id="UIg1ygmlC4a9c9u-8uv8-6" style="edgeStyle=orthogonalEdgeStyle;rounded=0;orthogonalLoop=1;jettySize=auto;html=1;" edge="1" parent="1" source="UIg1ygmlC4a9c9u-8uv8-4">
          <mxGeometry relative="1" as="geometry">
            <mxPoint x="320" y="290" as="targetPoint" />
          </mxGeometry>
        </mxCell>
        <mxCell id="UIg1ygmlC4a9c9u-8uv8-4" value="a,b" style="shape=card;whiteSpace=wrap;html=1;" vertex="1" parent="1">
          <mxGeometry x="250" y="170" width="140" height="60" as="geometry" />
        </mxCell>
        <mxCell id="UIg1ygmlC4a9c9u-8uv8-5" style="edgeStyle=orthogonalEdgeStyle;rounded=0;orthogonalLoop=1;jettySize=auto;html=1;entryX=0.571;entryY=0.167;entryDx=0;entryDy=0;entryPerimeter=0;" edge="1" parent="1" source="UIg1ygmlC4a9c9u-8uv8-1" target="UIg1ygmlC4a9c9u-8uv8-4">
          <mxGeometry relative="1" as="geometry">
            <Array as="points">
              <mxPoint x="310" y="140" />
              <mxPoint x="330" y="140" />
            </Array>
          </mxGeometry>
        </mxCell>
        <mxCell id="UIg1ygmlC4a9c9u-8uv8-10" style="edgeStyle=orthogonalEdgeStyle;rounded=0;orthogonalLoop=1;jettySize=auto;html=1;" edge="1" parent="1" source="UIg1ygmlC4a9c9u-8uv8-9" target="UIg1ygmlC4a9c9u-8uv8-11">
          <mxGeometry relative="1" as="geometry">
            <mxPoint x="320" y="540" as="targetPoint" />
          </mxGeometry>
        </mxCell>
        <mxCell id="UIg1ygmlC4a9c9u-8uv8-9" value="volume" style="shape=document;whiteSpace=wrap;html=1;boundedLbl=1;" vertex="1" parent="1">
          <mxGeometry x="260" y="400" width="120" height="80" as="geometry" />
        </mxCell>
        <mxCell id="UIg1ygmlC4a9c9u-8uv8-11" value="stop" style="rounded=1;whiteSpace=wrap;html=1;" vertex="1" parent="1">
          <mxGeometry x="260" y="510" width="120" height="60" as="geometry" />
        </mxCell>
      </root>
    </mxGraphModel>
  </diagram>
  <diagram id="7BL9X1L_T5z8WANXdpJ5" name="h.w.4">
    <mxGraphModel dx="1050" dy="566" grid="1" gridSize="10" guides="1" tooltips="1" connect="1" arrows="1" fold="1" page="1" pageScale="1" pageWidth="827" pageHeight="1169" math="0" shadow="0">
      <root>
        <mxCell id="0" />
        <mxCell id="1" parent="0" />
        <mxCell id="JQy7-Vp5-KjbmeiU4JBe-2" style="edgeStyle=orthogonalEdgeStyle;rounded=0;orthogonalLoop=1;jettySize=auto;html=1;" edge="1" parent="1" source="JQy7-Vp5-KjbmeiU4JBe-1" target="JQy7-Vp5-KjbmeiU4JBe-3">
          <mxGeometry relative="1" as="geometry">
            <mxPoint x="340" y="150" as="targetPoint" />
          </mxGeometry>
        </mxCell>
        <mxCell id="JQy7-Vp5-KjbmeiU4JBe-1" value="start" style="rounded=1;whiteSpace=wrap;html=1;" vertex="1" parent="1">
          <mxGeometry x="280" y="40" width="120" height="60" as="geometry" />
        </mxCell>
        <mxCell id="HnjJwDUX2f6jqippF5z2-5" style="edgeStyle=orthogonalEdgeStyle;rounded=0;orthogonalLoop=1;jettySize=auto;html=1;" edge="1" parent="1" source="JQy7-Vp5-KjbmeiU4JBe-3" target="JQy7-Vp5-KjbmeiU4JBe-4">
          <mxGeometry relative="1" as="geometry" />
        </mxCell>
        <mxCell id="JQy7-Vp5-KjbmeiU4JBe-3" value="a" style="shape=card;whiteSpace=wrap;html=1;" vertex="1" parent="1">
          <mxGeometry x="260" y="150" width="160" height="70" as="geometry" />
        </mxCell>
        <mxCell id="JQy7-Vp5-KjbmeiU4JBe-4" value="a&amp;lt;60" style="rhombus;whiteSpace=wrap;html=1;" vertex="1" parent="1">
          <mxGeometry x="200" y="280" width="90" height="80" as="geometry" />
        </mxCell>
        <mxCell id="HnjJwDUX2f6jqippF5z2-12" style="edgeStyle=orthogonalEdgeStyle;rounded=0;orthogonalLoop=1;jettySize=auto;html=1;" edge="1" parent="1" source="HnjJwDUX2f6jqippF5z2-1" target="HnjJwDUX2f6jqippF5z2-13">
          <mxGeometry relative="1" as="geometry">
            <mxPoint x="295" y="640" as="targetPoint" />
          </mxGeometry>
        </mxCell>
        <mxCell id="HnjJwDUX2f6jqippF5z2-1" value="length" style="shape=document;whiteSpace=wrap;html=1;boundedLbl=1;" vertex="1" parent="1">
          <mxGeometry x="210" y="490" width="170" height="80" as="geometry" />
        </mxCell>
        <mxCell id="HnjJwDUX2f6jqippF5z2-2" value="a&amp;gt;60" style="rhombus;whiteSpace=wrap;html=1;" vertex="1" parent="1">
          <mxGeometry x="540" y="290" width="80" height="80" as="geometry" />
        </mxCell>
        <mxCell id="HnjJwDUX2f6jqippF5z2-11" style="edgeStyle=orthogonalEdgeStyle;rounded=0;orthogonalLoop=1;jettySize=auto;html=1;entryX=0.75;entryY=0;entryDx=0;entryDy=0;" edge="1" parent="1" source="HnjJwDUX2f6jqippF5z2-3" target="HnjJwDUX2f6jqippF5z2-1">
          <mxGeometry relative="1" as="geometry" />
        </mxCell>
        <mxCell id="HnjJwDUX2f6jqippF5z2-3" value="h=a/60&lt;br&gt;m=a%60&lt;br&gt;h+m" style="rounded=0;whiteSpace=wrap;html=1;" vertex="1" parent="1">
          <mxGeometry x="414" y="380" width="124" height="60" as="geometry" />
        </mxCell>
        <mxCell id="HnjJwDUX2f6jqippF5z2-4" style="edgeStyle=orthogonalEdgeStyle;rounded=0;orthogonalLoop=1;jettySize=auto;html=1;entryX=0.4;entryY=0.095;entryDx=0;entryDy=0;entryPerimeter=0;" edge="1" parent="1" source="JQy7-Vp5-KjbmeiU4JBe-3" target="HnjJwDUX2f6jqippF5z2-2">
          <mxGeometry relative="1" as="geometry" />
        </mxCell>
        <mxCell id="HnjJwDUX2f6jqippF5z2-8" style="edgeStyle=orthogonalEdgeStyle;rounded=0;orthogonalLoop=1;jettySize=auto;html=1;entryX=0.403;entryY=0.2;entryDx=0;entryDy=0;entryPerimeter=0;" edge="1" parent="1" source="HnjJwDUX2f6jqippF5z2-2" target="HnjJwDUX2f6jqippF5z2-3">
          <mxGeometry relative="1" as="geometry" />
        </mxCell>
        <mxCell id="HnjJwDUX2f6jqippF5z2-10" style="edgeStyle=orthogonalEdgeStyle;rounded=0;orthogonalLoop=1;jettySize=auto;html=1;" edge="1" parent="1" source="JQy7-Vp5-KjbmeiU4JBe-4">
          <mxGeometry relative="1" as="geometry">
            <mxPoint x="245" y="490" as="targetPoint" />
          </mxGeometry>
        </mxCell>
        <mxCell id="HnjJwDUX2f6jqippF5z2-13" value="stop" style="rounded=1;whiteSpace=wrap;html=1;" vertex="1" parent="1">
          <mxGeometry x="235" y="610" width="120" height="60" as="geometry" />
        </mxCell>
      </root>
    </mxGraphModel>
  </diagram>
  <diagram id="QWF1DomZjYXTpuaLi6Pf" name="h.w.5">
    <mxGraphModel dx="1050" dy="566" grid="1" gridSize="10" guides="1" tooltips="1" connect="1" arrows="1" fold="1" page="1" pageScale="1" pageWidth="827" pageHeight="1169" math="0" shadow="0">
      <root>
        <mxCell id="0" />
        <mxCell id="1" parent="0" />
        <mxCell id="vNQQS9cujIeveyLbO9bg-4" style="edgeStyle=orthogonalEdgeStyle;rounded=0;orthogonalLoop=1;jettySize=auto;html=1;" edge="1" parent="1" source="Kr3i_lA1vLytU-kAF2JJ-1" target="Kr3i_lA1vLytU-kAF2JJ-3">
          <mxGeometry relative="1" as="geometry" />
        </mxCell>
        <mxCell id="Kr3i_lA1vLytU-kAF2JJ-1" value="start" style="rounded=1;whiteSpace=wrap;html=1;" vertex="1" parent="1">
          <mxGeometry x="294" y="20" width="120" height="60" as="geometry" />
        </mxCell>
        <mxCell id="vNQQS9cujIeveyLbO9bg-6" style="edgeStyle=orthogonalEdgeStyle;rounded=0;orthogonalLoop=1;jettySize=auto;html=1;" edge="1" parent="1" source="Kr3i_lA1vLytU-kAF2JJ-3" target="vNQQS9cujIeveyLbO9bg-1">
          <mxGeometry relative="1" as="geometry" />
        </mxCell>
        <mxCell id="Kr3i_lA1vLytU-kAF2JJ-3" value="a" style="shape=card;whiteSpace=wrap;html=1;" vertex="1" parent="1">
          <mxGeometry x="269" y="120" width="170" height="50" as="geometry" />
        </mxCell>
        <mxCell id="bYc298SdfgkDBRHpSOw7-4" style="edgeStyle=orthogonalEdgeStyle;rounded=0;orthogonalLoop=1;jettySize=auto;html=1;" edge="1" parent="1" source="bYc298SdfgkDBRHpSOw7-1" target="bYc298SdfgkDBRHpSOw7-5">
          <mxGeometry relative="1" as="geometry">
            <mxPoint x="445" y="330" as="targetPoint" />
          </mxGeometry>
        </mxCell>
        <mxCell id="bYc298SdfgkDBRHpSOw7-1" value="a %10" style="rounded=0;whiteSpace=wrap;html=1;" vertex="1" parent="1">
          <mxGeometry x="450" y="240" width="120" height="60" as="geometry" />
        </mxCell>
        <mxCell id="bYc298SdfgkDBRHpSOw7-7" style="edgeStyle=orthogonalEdgeStyle;rounded=0;orthogonalLoop=1;jettySize=auto;html=1;" edge="1" parent="1" source="vNQQS9cujIeveyLbO9bg-1" target="bYc298SdfgkDBRHpSOw7-1">
          <mxGeometry relative="1" as="geometry" />
        </mxCell>
        <mxCell id="cySL7lsOIeAiveGo4LUb-2" value="yes" style="edgeLabel;html=1;align=center;verticalAlign=middle;resizable=0;points=[];" vertex="1" connectable="0" parent="bYc298SdfgkDBRHpSOw7-7">
          <mxGeometry x="-0.0965" y="2" relative="1" as="geometry">
            <mxPoint as="offset" />
          </mxGeometry>
        </mxCell>
        <mxCell id="bYc298SdfgkDBRHpSOw7-8" style="edgeStyle=orthogonalEdgeStyle;rounded=0;orthogonalLoop=1;jettySize=auto;html=1;entryX=0.5;entryY=0;entryDx=0;entryDy=0;" edge="1" parent="1" source="bYc298SdfgkDBRHpSOw7-5" target="bYc298SdfgkDBRHpSOw7-6">
          <mxGeometry relative="1" as="geometry" />
        </mxCell>
        <mxCell id="bYc298SdfgkDBRHpSOw7-5" value="right dig" style="shape=document;whiteSpace=wrap;html=1;boundedLbl=1;" vertex="1" parent="1">
          <mxGeometry x="450" y="440" width="120" height="80" as="geometry" />
        </mxCell>
        <mxCell id="bYc298SdfgkDBRHpSOw7-6" value="stop" style="rounded=1;whiteSpace=wrap;html=1;" vertex="1" parent="1">
          <mxGeometry x="450" y="600" width="120" height="60" as="geometry" />
        </mxCell>
        <mxCell id="vNQQS9cujIeveyLbO9bg-7" style="edgeStyle=orthogonalEdgeStyle;rounded=0;orthogonalLoop=1;jettySize=auto;html=1;" edge="1" parent="1" source="vNQQS9cujIeveyLbO9bg-1" target="vNQQS9cujIeveyLbO9bg-5">
          <mxGeometry relative="1" as="geometry" />
        </mxCell>
        <mxCell id="cySL7lsOIeAiveGo4LUb-1" value="no" style="edgeLabel;html=1;align=center;verticalAlign=middle;resizable=0;points=[];" vertex="1" connectable="0" parent="vNQQS9cujIeveyLbO9bg-7">
          <mxGeometry x="-0.088" y="-4" relative="1" as="geometry">
            <mxPoint as="offset" />
          </mxGeometry>
        </mxCell>
        <mxCell id="vNQQS9cujIeveyLbO9bg-1" value="a&amp;gt;1000" style="rhombus;whiteSpace=wrap;html=1;" vertex="1" parent="1">
          <mxGeometry x="80" y="190" width="100" height="100" as="geometry" />
        </mxCell>
        <mxCell id="vNQQS9cujIeveyLbO9bg-5" value="num min 4 dig" style="shape=document;whiteSpace=wrap;html=1;boundedLbl=1;" vertex="1" parent="1">
          <mxGeometry x="70" y="340" width="120" height="80" as="geometry" />
        </mxCell>
        <mxCell id="vNQQS9cujIeveyLbO9bg-8" style="edgeStyle=orthogonalEdgeStyle;rounded=0;orthogonalLoop=1;jettySize=auto;html=1;entryX=0.194;entryY=0.968;entryDx=0;entryDy=0;entryPerimeter=0;" edge="1" parent="1" source="vNQQS9cujIeveyLbO9bg-5" target="Kr3i_lA1vLytU-kAF2JJ-3">
          <mxGeometry relative="1" as="geometry" />
        </mxCell>
      </root>
    </mxGraphModel>
  </diagram>
  <diagram id="7D42csiayKcZh37oX7PL" name="h.w. 6">
    <mxGraphModel dx="1050" dy="566" grid="1" gridSize="10" guides="1" tooltips="1" connect="1" arrows="1" fold="1" page="1" pageScale="1" pageWidth="827" pageHeight="1169" math="0" shadow="0">
      <root>
        <mxCell id="0" />
        <mxCell id="1" parent="0" />
        <mxCell id="Q2vCVJGQ7XsTg89xfJlV-9" style="edgeStyle=orthogonalEdgeStyle;rounded=0;orthogonalLoop=1;jettySize=auto;html=1;" edge="1" parent="1" source="Q2vCVJGQ7XsTg89xfJlV-1" target="Q2vCVJGQ7XsTg89xfJlV-2">
          <mxGeometry relative="1" as="geometry" />
        </mxCell>
        <mxCell id="Q2vCVJGQ7XsTg89xfJlV-1" value="start" style="rounded=1;whiteSpace=wrap;html=1;" vertex="1" parent="1">
          <mxGeometry x="280" y="70" width="120" height="60" as="geometry" />
        </mxCell>
        <mxCell id="j7L3TlzSbep8D4H6ST9V-5" style="edgeStyle=orthogonalEdgeStyle;rounded=0;orthogonalLoop=1;jettySize=auto;html=1;" edge="1" parent="1" source="Q2vCVJGQ7XsTg89xfJlV-2" target="j7L3TlzSbep8D4H6ST9V-1">
          <mxGeometry relative="1" as="geometry" />
        </mxCell>
        <mxCell id="Q2vCVJGQ7XsTg89xfJlV-2" value="a" style="shape=card;whiteSpace=wrap;html=1;" vertex="1" parent="1">
          <mxGeometry x="260" y="170" width="160" height="60" as="geometry" />
        </mxCell>
        <mxCell id="Q2vCVJGQ7XsTg89xfJlV-3" value="a/10&lt;br&gt;ans=a%10" style="rounded=0;whiteSpace=wrap;html=1;" vertex="1" parent="1">
          <mxGeometry x="510" y="320" width="120" height="60" as="geometry" />
        </mxCell>
        <mxCell id="Q2vCVJGQ7XsTg89xfJlV-4" value="second dig from right" style="shape=document;whiteSpace=wrap;html=1;boundedLbl=1;" vertex="1" parent="1">
          <mxGeometry x="520" y="460" width="120" height="60" as="geometry" />
        </mxCell>
        <mxCell id="Q2vCVJGQ7XsTg89xfJlV-8" value="" style="edgeStyle=orthogonalEdgeStyle;rounded=0;orthogonalLoop=1;jettySize=auto;html=1;" edge="1" parent="1" source="Q2vCVJGQ7XsTg89xfJlV-4" target="Q2vCVJGQ7XsTg89xfJlV-7">
          <mxGeometry relative="1" as="geometry">
            <mxPoint x="340" y="440" as="sourcePoint" />
            <mxPoint x="340" y="550" as="targetPoint" />
          </mxGeometry>
        </mxCell>
        <mxCell id="Q2vCVJGQ7XsTg89xfJlV-7" value="stop" style="rounded=1;whiteSpace=wrap;html=1;" vertex="1" parent="1">
          <mxGeometry x="294" y="540" width="120" height="60" as="geometry" />
        </mxCell>
        <mxCell id="Q2vCVJGQ7XsTg89xfJlV-11" style="edgeStyle=orthogonalEdgeStyle;rounded=0;orthogonalLoop=1;jettySize=auto;html=1;entryX=0.567;entryY=0.073;entryDx=0;entryDy=0;entryPerimeter=0;" edge="1" parent="1" source="Q2vCVJGQ7XsTg89xfJlV-2" target="Q2vCVJGQ7XsTg89xfJlV-3">
          <mxGeometry relative="1" as="geometry" />
        </mxCell>
        <mxCell id="Q2vCVJGQ7XsTg89xfJlV-12" style="edgeStyle=orthogonalEdgeStyle;rounded=0;orthogonalLoop=1;jettySize=auto;html=1;entryX=0.417;entryY=0.125;entryDx=0;entryDy=0;entryPerimeter=0;" edge="1" parent="1" source="Q2vCVJGQ7XsTg89xfJlV-3" target="Q2vCVJGQ7XsTg89xfJlV-4">
          <mxGeometry relative="1" as="geometry" />
        </mxCell>
        <mxCell id="j7L3TlzSbep8D4H6ST9V-6" style="edgeStyle=orthogonalEdgeStyle;rounded=0;orthogonalLoop=1;jettySize=auto;html=1;" edge="1" parent="1" source="j7L3TlzSbep8D4H6ST9V-1" target="Q2vCVJGQ7XsTg89xfJlV-3">
          <mxGeometry relative="1" as="geometry" />
        </mxCell>
        <mxCell id="j7L3TlzSbep8D4H6ST9V-7" value="yes" style="edgeLabel;html=1;align=center;verticalAlign=middle;resizable=0;points=[];" vertex="1" connectable="0" parent="j7L3TlzSbep8D4H6ST9V-6">
          <mxGeometry x="0.1304" y="3" relative="1" as="geometry">
            <mxPoint as="offset" />
          </mxGeometry>
        </mxCell>
        <mxCell id="j7L3TlzSbep8D4H6ST9V-1" value="a&amp;gt;1000" style="rhombus;whiteSpace=wrap;html=1;" vertex="1" parent="1">
          <mxGeometry x="250" y="260" width="80" height="80" as="geometry" />
        </mxCell>
        <mxCell id="j7L3TlzSbep8D4H6ST9V-4" style="edgeStyle=orthogonalEdgeStyle;rounded=0;orthogonalLoop=1;jettySize=auto;html=1;entryX=0;entryY=0;entryDx=0;entryDy=30;entryPerimeter=0;exitX=0;exitY=0.25;exitDx=0;exitDy=0;" edge="1" parent="1" source="j7L3TlzSbep8D4H6ST9V-2" target="Q2vCVJGQ7XsTg89xfJlV-2">
          <mxGeometry relative="1" as="geometry">
            <mxPoint x="100" y="230" as="targetPoint" />
          </mxGeometry>
        </mxCell>
        <mxCell id="j7L3TlzSbep8D4H6ST9V-2" value="num min 4 dig" style="shape=document;whiteSpace=wrap;html=1;boundedLbl=1;" vertex="1" parent="1">
          <mxGeometry x="160" y="420" width="120" height="80" as="geometry" />
        </mxCell>
        <mxCell id="j7L3TlzSbep8D4H6ST9V-3" value="no" style="edgeStyle=orthogonalEdgeStyle;rounded=0;orthogonalLoop=1;jettySize=auto;html=1;entryX=0.667;entryY=0.075;entryDx=0;entryDy=0;entryPerimeter=0;" edge="1" parent="1" source="j7L3TlzSbep8D4H6ST9V-1" target="j7L3TlzSbep8D4H6ST9V-2">
          <mxGeometry relative="1" as="geometry" />
        </mxCell>
      </root>
    </mxGraphModel>
  </diagram>
  <diagram id="Qn84K3QQsCbcKlHO7F3b" name="h.w.7">
    <mxGraphModel dx="1050" dy="566" grid="1" gridSize="10" guides="1" tooltips="1" connect="1" arrows="1" fold="1" page="1" pageScale="1" pageWidth="827" pageHeight="1169" math="0" shadow="0">
      <root>
        <mxCell id="0" />
        <mxCell id="1" parent="0" />
        <mxCell id="V5j_bAXO9zSjjOVJqIf9-1" value="start" style="rounded=1;whiteSpace=wrap;html=1;" vertex="1" parent="1">
          <mxGeometry x="280" y="60" width="120" height="60" as="geometry" />
        </mxCell>
        <mxCell id="V5j_bAXO9zSjjOVJqIf9-2" value="a" style="shape=card;whiteSpace=wrap;html=1;" vertex="1" parent="1">
          <mxGeometry x="240" y="150" width="150" height="60" as="geometry" />
        </mxCell>
        <mxCell id="_bVOSSbW5Bqn4bPdXPfy-3" style="edgeStyle=orthogonalEdgeStyle;rounded=0;orthogonalLoop=1;jettySize=auto;html=1;entryX=0.5;entryY=0;entryDx=0;entryDy=0;" edge="1" parent="1" source="ol_b3JaH7eqL3WSCczdl-1" target="WZiX5CJD1RK8opNRPVqI-1">
          <mxGeometry relative="1" as="geometry" />
        </mxCell>
        <mxCell id="_bVOSSbW5Bqn4bPdXPfy-5" value="no" style="edgeLabel;html=1;align=center;verticalAlign=middle;resizable=0;points=[];" vertex="1" connectable="0" parent="_bVOSSbW5Bqn4bPdXPfy-3">
          <mxGeometry x="-0.11" y="4" relative="1" as="geometry">
            <mxPoint as="offset" />
          </mxGeometry>
        </mxCell>
        <mxCell id="_bVOSSbW5Bqn4bPdXPfy-6" value="yes" style="edgeStyle=orthogonalEdgeStyle;rounded=0;orthogonalLoop=1;jettySize=auto;html=1;entryX=0;entryY=0.5;entryDx=0;entryDy=0;" edge="1" parent="1" source="ol_b3JaH7eqL3WSCczdl-1" target="71hEHgSw7-ZbFlKPqoLA-1">
          <mxGeometry relative="1" as="geometry" />
        </mxCell>
        <mxCell id="ol_b3JaH7eqL3WSCczdl-1" value="a&amp;gt;100" style="rhombus;whiteSpace=wrap;html=1;" vertex="1" parent="1">
          <mxGeometry x="275" y="250" width="80" height="80" as="geometry" />
        </mxCell>
        <mxCell id="nOZp4elYivi27V7Azl68-1" style="edgeStyle=orthogonalEdgeStyle;rounded=0;orthogonalLoop=1;jettySize=auto;html=1;entryX=0.669;entryY=0.047;entryDx=0;entryDy=0;entryPerimeter=0;" edge="1" parent="1" source="V5j_bAXO9zSjjOVJqIf9-1" target="V5j_bAXO9zSjjOVJqIf9-2">
          <mxGeometry relative="1" as="geometry" />
        </mxCell>
        <mxCell id="_bVOSSbW5Bqn4bPdXPfy-8" style="edgeStyle=orthogonalEdgeStyle;rounded=0;orthogonalLoop=1;jettySize=auto;html=1;entryX=0;entryY=1;entryDx=0;entryDy=0;entryPerimeter=0;" edge="1" parent="1" source="WZiX5CJD1RK8opNRPVqI-1" target="V5j_bAXO9zSjjOVJqIf9-2">
          <mxGeometry relative="1" as="geometry">
            <mxPoint x="200" y="200" as="targetPoint" />
            <Array as="points">
              <mxPoint x="200" y="400" />
              <mxPoint x="200" y="286" />
              <mxPoint x="201" y="286" />
              <mxPoint x="201" y="210" />
            </Array>
          </mxGeometry>
        </mxCell>
        <mxCell id="WZiX5CJD1RK8opNRPVqI-1" value="num min 3 dig" style="shape=document;whiteSpace=wrap;html=1;boundedLbl=1;" vertex="1" parent="1">
          <mxGeometry x="220" y="370" width="155" height="60" as="geometry" />
        </mxCell>
        <mxCell id="_bVOSSbW5Bqn4bPdXPfy-10" style="edgeStyle=orthogonalEdgeStyle;rounded=0;orthogonalLoop=1;jettySize=auto;html=1;" edge="1" parent="1" source="71hEHgSw7-ZbFlKPqoLA-1" target="_bVOSSbW5Bqn4bPdXPfy-9">
          <mxGeometry relative="1" as="geometry" />
        </mxCell>
        <mxCell id="71hEHgSw7-ZbFlKPqoLA-1" value="a/100" style="rounded=0;whiteSpace=wrap;html=1;" vertex="1" parent="1">
          <mxGeometry x="430" y="260" width="120" height="60" as="geometry" />
        </mxCell>
        <mxCell id="_bVOSSbW5Bqn4bPdXPfy-7" style="edgeStyle=orthogonalEdgeStyle;rounded=0;orthogonalLoop=1;jettySize=auto;html=1;entryX=0.375;entryY=0.125;entryDx=0;entryDy=0;entryPerimeter=0;" edge="1" parent="1" source="V5j_bAXO9zSjjOVJqIf9-2" target="ol_b3JaH7eqL3WSCczdl-1">
          <mxGeometry relative="1" as="geometry" />
        </mxCell>
        <mxCell id="_bVOSSbW5Bqn4bPdXPfy-9" value="hundred&#39;s dig" style="shape=document;whiteSpace=wrap;html=1;boundedLbl=1;" vertex="1" parent="1">
          <mxGeometry x="430" y="420" width="120" height="80" as="geometry" />
        </mxCell>
      </root>
    </mxGraphModel>
  </diagram>
  <diagram id="RbZ9RsQhxofFVFq2GYeS" name="h.w.8">
    <mxGraphModel dx="1050" dy="566" grid="1" gridSize="10" guides="1" tooltips="1" connect="1" arrows="1" fold="1" page="1" pageScale="1" pageWidth="827" pageHeight="1169" math="0" shadow="0">
      <root>
        <mxCell id="0" />
        <mxCell id="1" parent="0" />
        <mxCell id="ODupdJU6UcRBgLzlxYki-1" value="start" style="rounded=1;whiteSpace=wrap;html=1;" vertex="1" parent="1">
          <mxGeometry x="280" y="40" width="120" height="40" as="geometry" />
        </mxCell>
        <mxCell id="ODupdJU6UcRBgLzlxYki-2" value="a" style="shape=card;whiteSpace=wrap;html=1;" vertex="1" parent="1">
          <mxGeometry x="260" y="130" width="140" height="50" as="geometry" />
        </mxCell>
        <mxCell id="ODupdJU6UcRBgLzlxYki-4" value="sum dig" style="shape=document;whiteSpace=wrap;html=1;boundedLbl=1;" vertex="1" parent="1">
          <mxGeometry x="280" y="470" width="120" height="80" as="geometry" />
        </mxCell>
        <mxCell id="fGl-EiUAB3RXXTrkRr2y-3" style="edgeStyle=orthogonalEdgeStyle;rounded=0;orthogonalLoop=1;jettySize=auto;html=1;entryX=0.5;entryY=0;entryDx=0;entryDy=0;" edge="1" parent="1" source="mifYJKAVnAkiHULMqDg6-1" target="mifYJKAVnAkiHULMqDg6-2">
          <mxGeometry relative="1" as="geometry">
            <mxPoint x="150" y="310" as="targetPoint" />
          </mxGeometry>
        </mxCell>
        <mxCell id="mifYJKAVnAkiHULMqDg6-1" value="" style="ellipse;whiteSpace=wrap;html=1;aspect=fixed;" vertex="1" parent="1">
          <mxGeometry x="210" y="220" width="70" height="70" as="geometry" />
        </mxCell>
        <mxCell id="fGl-EiUAB3RXXTrkRr2y-5" style="edgeStyle=orthogonalEdgeStyle;rounded=0;orthogonalLoop=1;jettySize=auto;html=1;" edge="1" parent="1" source="mifYJKAVnAkiHULMqDg6-2" target="fGl-EiUAB3RXXTrkRr2y-6">
          <mxGeometry relative="1" as="geometry">
            <mxPoint x="330" y="350" as="targetPoint" />
          </mxGeometry>
        </mxCell>
        <mxCell id="mifYJKAVnAkiHULMqDg6-2" value="10&amp;lt;a&amp;gt;100" style="rhombus;whiteSpace=wrap;html=1;" vertex="1" parent="1">
          <mxGeometry x="290" y="260" width="80" height="80" as="geometry" />
        </mxCell>
        <mxCell id="fGl-EiUAB3RXXTrkRr2y-4" style="edgeStyle=orthogonalEdgeStyle;rounded=0;orthogonalLoop=1;jettySize=auto;html=1;entryX=0.88;entryY=0.297;entryDx=0;entryDy=0;entryPerimeter=0;" edge="1" parent="1" source="ODupdJU6UcRBgLzlxYki-2" target="mifYJKAVnAkiHULMqDg6-1">
          <mxGeometry relative="1" as="geometry" />
        </mxCell>
        <mxCell id="Hd0jzq-rNi1IGQGSBX7m-1" style="edgeStyle=orthogonalEdgeStyle;rounded=0;orthogonalLoop=1;jettySize=auto;html=1;entryX=0.5;entryY=0;entryDx=0;entryDy=0;" edge="1" parent="1" source="fGl-EiUAB3RXXTrkRr2y-6" target="ODupdJU6UcRBgLzlxYki-4">
          <mxGeometry relative="1" as="geometry" />
        </mxCell>
        <mxCell id="fGl-EiUAB3RXXTrkRr2y-6" value="first dig=a/10&lt;br&gt;second dig a%10&lt;br&gt;first dig +second dig" style="rounded=0;whiteSpace=wrap;html=1;" vertex="1" parent="1">
          <mxGeometry x="270" y="380" width="120" height="60" as="geometry" />
        </mxCell>
        <mxCell id="Hd0jzq-rNi1IGQGSBX7m-2" value="stop" style="rounded=1;whiteSpace=wrap;html=1;" vertex="1" parent="1">
          <mxGeometry x="260" y="585" width="120" height="60" as="geometry" />
        </mxCell>
        <mxCell id="Hd0jzq-rNi1IGQGSBX7m-3" style="edgeStyle=orthogonalEdgeStyle;rounded=0;orthogonalLoop=1;jettySize=auto;html=1;entryX=0.63;entryY=0.013;entryDx=0;entryDy=0;entryPerimeter=0;" edge="1" parent="1" source="ODupdJU6UcRBgLzlxYki-4" target="Hd0jzq-rNi1IGQGSBX7m-2">
          <mxGeometry relative="1" as="geometry" />
        </mxCell>
        <mxCell id="Hd0jzq-rNi1IGQGSBX7m-4" style="edgeStyle=orthogonalEdgeStyle;rounded=0;orthogonalLoop=1;jettySize=auto;html=1;entryX=0.571;entryY=0.2;entryDx=0;entryDy=0;entryPerimeter=0;" edge="1" parent="1" source="ODupdJU6UcRBgLzlxYki-1" target="ODupdJU6UcRBgLzlxYki-2">
          <mxGeometry relative="1" as="geometry" />
        </mxCell>
      </root>
    </mxGraphModel>
  </diagram>
  <diagram id="WSvJFQpwz0YfickM_cm_" name="h.w.9">
    <mxGraphModel dx="1050" dy="566" grid="1" gridSize="10" guides="1" tooltips="1" connect="1" arrows="1" fold="1" page="1" pageScale="1" pageWidth="827" pageHeight="1169" math="0" shadow="0">
      <root>
        <mxCell id="0" />
        <mxCell id="1" parent="0" />
      </root>
    </mxGraphModel>
  </diagram>
  <diagram id="q8mxzwP1PZSZP1NEuP24" name="7 while">
    <mxGraphModel dx="1050" dy="566" grid="1" gridSize="10" guides="1" tooltips="1" connect="1" arrows="1" fold="1" page="1" pageScale="1" pageWidth="827" pageHeight="1169" math="0" shadow="0">
      <root>
        <mxCell id="0" />
        <mxCell id="1" parent="0" />
        <mxCell id="Nrh1HR3ya9X0BCgGaOmd-1" value="start" style="rounded=1;whiteSpace=wrap;html=1;" vertex="1" parent="1">
          <mxGeometry x="390" y="80" width="120" height="60" as="geometry" />
        </mxCell>
        <mxCell id="Nrh1HR3ya9X0BCgGaOmd-2" value="a" style="shape=card;whiteSpace=wrap;html=1;" vertex="1" parent="1">
          <mxGeometry x="350" y="170" width="150" height="60" as="geometry" />
        </mxCell>
        <mxCell id="ONjAsO_myTXtiRkQ5ZAd-3" style="edgeStyle=orthogonalEdgeStyle;rounded=0;orthogonalLoop=1;jettySize=auto;html=1;entryX=0.5;entryY=0;entryDx=0;entryDy=0;" edge="1" parent="1" source="Nrh1HR3ya9X0BCgGaOmd-6" target="Nrh1HR3ya9X0BCgGaOmd-11">
          <mxGeometry relative="1" as="geometry" />
        </mxCell>
        <mxCell id="Nrh1HR3ya9X0BCgGaOmd-6" value="a&amp;gt;100" style="rhombus;whiteSpace=wrap;html=1;" vertex="1" parent="1">
          <mxGeometry x="380" y="360" width="80" height="80" as="geometry" />
        </mxCell>
        <mxCell id="Nrh1HR3ya9X0BCgGaOmd-7" style="edgeStyle=orthogonalEdgeStyle;rounded=0;orthogonalLoop=1;jettySize=auto;html=1;entryX=0.669;entryY=0.047;entryDx=0;entryDy=0;entryPerimeter=0;" edge="1" source="Nrh1HR3ya9X0BCgGaOmd-1" target="Nrh1HR3ya9X0BCgGaOmd-2" parent="1">
          <mxGeometry relative="1" as="geometry" />
        </mxCell>
        <mxCell id="Nrh1HR3ya9X0BCgGaOmd-10" style="edgeStyle=orthogonalEdgeStyle;rounded=0;orthogonalLoop=1;jettySize=auto;html=1;" edge="1" source="ONjAsO_myTXtiRkQ5ZAd-4" target="Nrh1HR3ya9X0BCgGaOmd-13" parent="1">
          <mxGeometry relative="1" as="geometry" />
        </mxCell>
        <mxCell id="Nrh1HR3ya9X0BCgGaOmd-11" value="a/100" style="rounded=0;whiteSpace=wrap;html=1;" vertex="1" parent="1">
          <mxGeometry x="360" y="480" width="120" height="60" as="geometry" />
        </mxCell>
        <mxCell id="Nrh1HR3ya9X0BCgGaOmd-12" style="edgeStyle=orthogonalEdgeStyle;rounded=0;orthogonalLoop=1;jettySize=auto;html=1;entryX=0.375;entryY=0.125;entryDx=0;entryDy=0;entryPerimeter=0;" edge="1" source="ONjAsO_myTXtiRkQ5ZAd-1" target="Nrh1HR3ya9X0BCgGaOmd-6" parent="1">
          <mxGeometry relative="1" as="geometry" />
        </mxCell>
        <mxCell id="Nrh1HR3ya9X0BCgGaOmd-13" value="hundred&#39;s dig" style="shape=document;whiteSpace=wrap;html=1;boundedLbl=1;" vertex="1" parent="1">
          <mxGeometry x="350" y="740" width="120" height="80" as="geometry" />
        </mxCell>
        <mxCell id="ONjAsO_myTXtiRkQ5ZAd-2" value="" style="edgeStyle=orthogonalEdgeStyle;rounded=0;orthogonalLoop=1;jettySize=auto;html=1;entryX=0.375;entryY=0.125;entryDx=0;entryDy=0;entryPerimeter=0;" edge="1" parent="1" source="Nrh1HR3ya9X0BCgGaOmd-2" target="ONjAsO_myTXtiRkQ5ZAd-1">
          <mxGeometry relative="1" as="geometry">
            <mxPoint x="350" y="200" as="sourcePoint" />
            <mxPoint x="290" y="370" as="targetPoint" />
          </mxGeometry>
        </mxCell>
        <mxCell id="ONjAsO_myTXtiRkQ5ZAd-1" value="" style="ellipse;whiteSpace=wrap;html=1;aspect=fixed;" vertex="1" parent="1">
          <mxGeometry x="385" y="270" width="60" height="60" as="geometry" />
        </mxCell>
        <mxCell id="Af1jdn2b11T3iEcdfNS8-1" value="" style="edgeStyle=orthogonalEdgeStyle;rounded=0;orthogonalLoop=1;jettySize=auto;html=1;" edge="1" parent="1" source="Nrh1HR3ya9X0BCgGaOmd-11" target="ONjAsO_myTXtiRkQ5ZAd-4">
          <mxGeometry relative="1" as="geometry">
            <mxPoint x="420" y="540" as="sourcePoint" />
            <mxPoint x="410" y="740" as="targetPoint" />
          </mxGeometry>
        </mxCell>
        <mxCell id="ONjAsO_myTXtiRkQ5ZAd-4" value="answer==0" style="rhombus;whiteSpace=wrap;html=1;" vertex="1" parent="1">
          <mxGeometry x="380" y="600" width="80" height="80" as="geometry" />
        </mxCell>
        <mxCell id="Af1jdn2b11T3iEcdfNS8-2" value="" style="shape=document;whiteSpace=wrap;html=1;boundedLbl=1;" vertex="1" parent="1">
          <mxGeometry x="520" y="610" width="120" height="80" as="geometry" />
        </mxCell>
        <mxCell id="Af1jdn2b11T3iEcdfNS8-3" style="edgeStyle=orthogonalEdgeStyle;rounded=0;orthogonalLoop=1;jettySize=auto;html=1;entryX=0.05;entryY=0.4;entryDx=0;entryDy=0;entryPerimeter=0;" edge="1" parent="1" source="ONjAsO_myTXtiRkQ5ZAd-4" target="Af1jdn2b11T3iEcdfNS8-2">
          <mxGeometry relative="1" as="geometry" />
        </mxCell>
      </root>
    </mxGraphModel>
  </diagram>
  <diagram id="jq565hkceuSm-OsI0At6" name="5 while">
    <mxGraphModel dx="1050" dy="566" grid="1" gridSize="10" guides="1" tooltips="1" connect="1" arrows="1" fold="1" page="1" pageScale="1" pageWidth="827" pageHeight="1169" math="0" shadow="0">
      <root>
        <mxCell id="0" />
        <mxCell id="1" parent="0" />
        <mxCell id="kGmxyTit9YhgiXrIIOor-1" style="edgeStyle=orthogonalEdgeStyle;rounded=0;orthogonalLoop=1;jettySize=auto;html=1;" edge="1" parent="1" source="kGmxyTit9YhgiXrIIOor-2" target="kGmxyTit9YhgiXrIIOor-4">
          <mxGeometry relative="1" as="geometry" />
        </mxCell>
        <mxCell id="kGmxyTit9YhgiXrIIOor-2" value="start" style="rounded=1;whiteSpace=wrap;html=1;" vertex="1" parent="1">
          <mxGeometry x="225" y="10" width="120" height="60" as="geometry" />
        </mxCell>
        <mxCell id="kGmxyTit9YhgiXrIIOor-3" style="edgeStyle=orthogonalEdgeStyle;rounded=0;orthogonalLoop=1;jettySize=auto;html=1;" edge="1" parent="1" source="BsZ-DTDPskwfU6yI89io-1" target="kGmxyTit9YhgiXrIIOor-14">
          <mxGeometry relative="1" as="geometry" />
        </mxCell>
        <mxCell id="kGmxyTit9YhgiXrIIOor-4" value="a" style="shape=card;whiteSpace=wrap;html=1;" vertex="1" parent="1">
          <mxGeometry x="200" y="120" width="170" height="50" as="geometry" />
        </mxCell>
        <mxCell id="kGmxyTit9YhgiXrIIOor-5" style="edgeStyle=orthogonalEdgeStyle;rounded=0;orthogonalLoop=1;jettySize=auto;html=1;" edge="1" parent="1" source="kGmxyTit9YhgiXrIIOor-6" target="kGmxyTit9YhgiXrIIOor-10">
          <mxGeometry relative="1" as="geometry">
            <mxPoint x="705" y="330" as="targetPoint" />
          </mxGeometry>
        </mxCell>
        <mxCell id="kGmxyTit9YhgiXrIIOor-6" value="a %10" style="rounded=0;whiteSpace=wrap;html=1;" vertex="1" parent="1">
          <mxGeometry x="250" y="440" width="120" height="60" as="geometry" />
        </mxCell>
        <mxCell id="kGmxyTit9YhgiXrIIOor-7" style="edgeStyle=orthogonalEdgeStyle;rounded=0;orthogonalLoop=1;jettySize=auto;html=1;" edge="1" parent="1" source="kGmxyTit9YhgiXrIIOor-14" target="kGmxyTit9YhgiXrIIOor-6">
          <mxGeometry relative="1" as="geometry" />
        </mxCell>
        <mxCell id="kGmxyTit9YhgiXrIIOor-9" style="edgeStyle=orthogonalEdgeStyle;rounded=0;orthogonalLoop=1;jettySize=auto;html=1;entryX=0.5;entryY=0;entryDx=0;entryDy=0;" edge="1" parent="1" source="kGmxyTit9YhgiXrIIOor-10" target="kGmxyTit9YhgiXrIIOor-11">
          <mxGeometry relative="1" as="geometry" />
        </mxCell>
        <mxCell id="kGmxyTit9YhgiXrIIOor-10" value="right dig" style="shape=document;whiteSpace=wrap;html=1;boundedLbl=1;" vertex="1" parent="1">
          <mxGeometry x="250" y="560" width="120" height="80" as="geometry" />
        </mxCell>
        <mxCell id="kGmxyTit9YhgiXrIIOor-11" value="stop" style="rounded=1;whiteSpace=wrap;html=1;" vertex="1" parent="1">
          <mxGeometry x="250" y="700" width="120" height="60" as="geometry" />
        </mxCell>
        <mxCell id="kGmxyTit9YhgiXrIIOor-14" value="a&amp;gt;1000" style="rhombus;whiteSpace=wrap;html=1;" vertex="1" parent="1">
          <mxGeometry x="235" y="310" width="100" height="100" as="geometry" />
        </mxCell>
        <mxCell id="BsZ-DTDPskwfU6yI89io-2" value="" style="edgeStyle=orthogonalEdgeStyle;rounded=0;orthogonalLoop=1;jettySize=auto;html=1;" edge="1" parent="1" source="kGmxyTit9YhgiXrIIOor-4" target="BsZ-DTDPskwfU6yI89io-1">
          <mxGeometry relative="1" as="geometry">
            <mxPoint x="529" y="145" as="sourcePoint" />
            <mxPoint x="300" y="280" as="targetPoint" />
          </mxGeometry>
        </mxCell>
        <mxCell id="BsZ-DTDPskwfU6yI89io-1" value="" style="ellipse;whiteSpace=wrap;html=1;aspect=fixed;" vertex="1" parent="1">
          <mxGeometry x="245" y="210" width="80" height="80" as="geometry" />
        </mxCell>
      </root>
    </mxGraphModel>
  </diagram>
  <diagram id="7dRp4VO3xC9MXseBnaos" name="6 while">
    <mxGraphModel dx="1050" dy="566" grid="1" gridSize="10" guides="1" tooltips="1" connect="1" arrows="1" fold="1" page="1" pageScale="1" pageWidth="827" pageHeight="1169" math="0" shadow="0">
      <root>
        <mxCell id="0" />
        <mxCell id="1" parent="0" />
        <mxCell id="AhOnO2mIoXrHEVFFpJGR-1" style="edgeStyle=orthogonalEdgeStyle;rounded=0;orthogonalLoop=1;jettySize=auto;html=1;" edge="1" parent="1" source="AhOnO2mIoXrHEVFFpJGR-2" target="AhOnO2mIoXrHEVFFpJGR-4">
          <mxGeometry relative="1" as="geometry" />
        </mxCell>
        <mxCell id="AhOnO2mIoXrHEVFFpJGR-2" value="start" style="rounded=1;whiteSpace=wrap;html=1;" vertex="1" parent="1">
          <mxGeometry x="220" y="120" width="120" height="60" as="geometry" />
        </mxCell>
        <mxCell id="AhOnO2mIoXrHEVFFpJGR-3" style="edgeStyle=orthogonalEdgeStyle;rounded=0;orthogonalLoop=1;jettySize=auto;html=1;" edge="1" parent="1" source="AhOnO2mIoXrHEVFFpJGR-17" target="AhOnO2mIoXrHEVFFpJGR-13">
          <mxGeometry relative="1" as="geometry" />
        </mxCell>
        <mxCell id="AhOnO2mIoXrHEVFFpJGR-4" value="a" style="shape=card;whiteSpace=wrap;html=1;" vertex="1" parent="1">
          <mxGeometry x="200" y="220" width="160" height="60" as="geometry" />
        </mxCell>
        <mxCell id="AhOnO2mIoXrHEVFFpJGR-5" value="a/10&lt;br&gt;ans=a%10" style="rounded=0;whiteSpace=wrap;html=1;" vertex="1" parent="1">
          <mxGeometry x="220" y="550" width="120" height="60" as="geometry" />
        </mxCell>
        <mxCell id="AhOnO2mIoXrHEVFFpJGR-6" value="second dig from right" style="shape=document;whiteSpace=wrap;html=1;boundedLbl=1;" vertex="1" parent="1">
          <mxGeometry x="230" y="660" width="120" height="60" as="geometry" />
        </mxCell>
        <mxCell id="AhOnO2mIoXrHEVFFpJGR-7" value="" style="edgeStyle=orthogonalEdgeStyle;rounded=0;orthogonalLoop=1;jettySize=auto;html=1;" edge="1" parent="1" source="AhOnO2mIoXrHEVFFpJGR-6" target="AhOnO2mIoXrHEVFFpJGR-8">
          <mxGeometry relative="1" as="geometry">
            <mxPoint x="280" y="490" as="sourcePoint" />
            <mxPoint x="280" y="600" as="targetPoint" />
          </mxGeometry>
        </mxCell>
        <mxCell id="AhOnO2mIoXrHEVFFpJGR-8" value="stop" style="rounded=1;whiteSpace=wrap;html=1;" vertex="1" parent="1">
          <mxGeometry x="230" y="820" width="120" height="60" as="geometry" />
        </mxCell>
        <mxCell id="AhOnO2mIoXrHEVFFpJGR-11" style="edgeStyle=orthogonalEdgeStyle;rounded=0;orthogonalLoop=1;jettySize=auto;html=1;" edge="1" parent="1" source="AhOnO2mIoXrHEVFFpJGR-13" target="AhOnO2mIoXrHEVFFpJGR-5">
          <mxGeometry relative="1" as="geometry" />
        </mxCell>
        <mxCell id="AhOnO2mIoXrHEVFFpJGR-13" value="a&amp;gt;1000" style="rhombus;whiteSpace=wrap;html=1;" vertex="1" parent="1">
          <mxGeometry x="240" y="420" width="80" height="80" as="geometry" />
        </mxCell>
        <mxCell id="AhOnO2mIoXrHEVFFpJGR-18" value="" style="edgeStyle=orthogonalEdgeStyle;rounded=0;orthogonalLoop=1;jettySize=auto;html=1;" edge="1" parent="1" source="AhOnO2mIoXrHEVFFpJGR-4" target="AhOnO2mIoXrHEVFFpJGR-17">
          <mxGeometry relative="1" as="geometry">
            <mxPoint x="200" y="250" as="sourcePoint" />
            <mxPoint x="130" y="430" as="targetPoint" />
          </mxGeometry>
        </mxCell>
        <mxCell id="AhOnO2mIoXrHEVFFpJGR-17" value="" style="ellipse;whiteSpace=wrap;html=1;aspect=fixed;" vertex="1" parent="1">
          <mxGeometry x="240" y="310" width="80" height="80" as="geometry" />
        </mxCell>
        <mxCell id="AhOnO2mIoXrHEVFFpJGR-20" style="edgeStyle=orthogonalEdgeStyle;rounded=0;orthogonalLoop=1;jettySize=auto;html=1;entryX=0.413;entryY=-0.06;entryDx=0;entryDy=0;entryPerimeter=0;" edge="1" parent="1" source="AhOnO2mIoXrHEVFFpJGR-5" target="AhOnO2mIoXrHEVFFpJGR-6">
          <mxGeometry relative="1" as="geometry" />
        </mxCell>
      </root>
    </mxGraphModel>
  </diagram>
  <diagram id="61A4OAOZy60BkuYymLMw" name="h.w.9">
    <mxGraphModel dx="1050" dy="566" grid="1" gridSize="10" guides="1" tooltips="1" connect="1" arrows="1" fold="1" page="1" pageScale="1" pageWidth="827" pageHeight="1169" math="0" shadow="0">
      <root>
        <mxCell id="0" />
        <mxCell id="1" parent="0" />
        <mxCell id="Y900LdwAFIWm_eK-gnK6-1" value="start" style="rounded=1;whiteSpace=wrap;html=1;" vertex="1" parent="1">
          <mxGeometry x="270" y="40" width="120" height="60" as="geometry" />
        </mxCell>
        <mxCell id="RmJ1SL1Nni1Qwy6DJJkQ-2" style="edgeStyle=orthogonalEdgeStyle;rounded=0;orthogonalLoop=1;jettySize=auto;html=1;" edge="1" parent="1" source="Y900LdwAFIWm_eK-gnK6-2" target="swhLI-g1Y2ISUrsnFE-v-1">
          <mxGeometry relative="1" as="geometry" />
        </mxCell>
        <mxCell id="Y900LdwAFIWm_eK-gnK6-2" value="a" style="shape=card;whiteSpace=wrap;html=1;" vertex="1" parent="1">
          <mxGeometry x="255" y="140" width="150" height="50" as="geometry" />
        </mxCell>
        <mxCell id="RmJ1SL1Nni1Qwy6DJJkQ-4" style="edgeStyle=orthogonalEdgeStyle;rounded=0;orthogonalLoop=1;jettySize=auto;html=1;entryX=0.5;entryY=0;entryDx=0;entryDy=0;" edge="1" parent="1" source="Y900LdwAFIWm_eK-gnK6-3" target="swhLI-g1Y2ISUrsnFE-v-2">
          <mxGeometry relative="1" as="geometry" />
        </mxCell>
        <mxCell id="Y900LdwAFIWm_eK-gnK6-3" value="10&amp;lt;a&amp;gt;100" style="rhombus;whiteSpace=wrap;html=1;" vertex="1" parent="1">
          <mxGeometry x="260" y="360" width="110" height="90" as="geometry" />
        </mxCell>
        <mxCell id="RmJ1SL1Nni1Qwy6DJJkQ-3" style="edgeStyle=orthogonalEdgeStyle;rounded=0;orthogonalLoop=1;jettySize=auto;html=1;entryX=0.5;entryY=0;entryDx=0;entryDy=0;" edge="1" parent="1" source="swhLI-g1Y2ISUrsnFE-v-1" target="Y900LdwAFIWm_eK-gnK6-3">
          <mxGeometry relative="1" as="geometry" />
        </mxCell>
        <mxCell id="swhLI-g1Y2ISUrsnFE-v-1" value="" style="ellipse;whiteSpace=wrap;html=1;aspect=fixed;" vertex="1" parent="1">
          <mxGeometry x="270" y="230" width="90" height="90" as="geometry" />
        </mxCell>
        <mxCell id="swhLI-g1Y2ISUrsnFE-v-2" value="tens1 =a/10&lt;br&gt;ones1=a%10&lt;br&gt;tens2=ones1*10&lt;br&gt;tens2+tens1" style="rounded=0;whiteSpace=wrap;html=1;" vertex="1" parent="1">
          <mxGeometry x="230" y="510" width="170" height="80" as="geometry" />
        </mxCell>
        <mxCell id="swhLI-g1Y2ISUrsnFE-v-3" value="answer" style="shape=document;whiteSpace=wrap;html=1;boundedLbl=1;" vertex="1" parent="1">
          <mxGeometry x="250" y="660" width="120" height="80" as="geometry" />
        </mxCell>
        <mxCell id="RmJ1SL1Nni1Qwy6DJJkQ-1" style="edgeStyle=orthogonalEdgeStyle;rounded=0;orthogonalLoop=1;jettySize=auto;html=1;entryX=0.5;entryY=0.2;entryDx=0;entryDy=0;entryPerimeter=0;" edge="1" parent="1" source="Y900LdwAFIWm_eK-gnK6-1" target="Y900LdwAFIWm_eK-gnK6-2">
          <mxGeometry relative="1" as="geometry" />
        </mxCell>
        <mxCell id="RmJ1SL1Nni1Qwy6DJJkQ-5" style="edgeStyle=orthogonalEdgeStyle;rounded=0;orthogonalLoop=1;jettySize=auto;html=1;entryX=0.542;entryY=0.125;entryDx=0;entryDy=0;entryPerimeter=0;" edge="1" parent="1" source="swhLI-g1Y2ISUrsnFE-v-2" target="swhLI-g1Y2ISUrsnFE-v-3">
          <mxGeometry relative="1" as="geometry" />
        </mxCell>
        <mxCell id="RmJ1SL1Nni1Qwy6DJJkQ-6" value="stop" style="rounded=1;whiteSpace=wrap;html=1;" vertex="1" parent="1">
          <mxGeometry x="240" y="770" width="120" height="60" as="geometry" />
        </mxCell>
        <mxCell id="RmJ1SL1Nni1Qwy6DJJkQ-7" style="edgeStyle=orthogonalEdgeStyle;rounded=0;orthogonalLoop=1;jettySize=auto;html=1;entryX=0.583;entryY=0.013;entryDx=0;entryDy=0;entryPerimeter=0;" edge="1" parent="1" source="swhLI-g1Y2ISUrsnFE-v-3" target="RmJ1SL1Nni1Qwy6DJJkQ-6">
          <mxGeometry relative="1" as="geometry" />
        </mxCell>
      </root>
    </mxGraphModel>
  </diagram>
  <diagram id="sNX0yUAEeuc3gN_2XQsY" name="h.w.10">
    <mxGraphModel dx="1050" dy="566" grid="1" gridSize="10" guides="1" tooltips="1" connect="1" arrows="1" fold="1" page="1" pageScale="1" pageWidth="827" pageHeight="1169" math="0" shadow="0">
      <root>
        <mxCell id="0" />
        <mxCell id="1" parent="0" />
        <mxCell id="hZU2TV5PLivFhfJGA3uN-4" style="edgeStyle=orthogonalEdgeStyle;rounded=0;orthogonalLoop=1;jettySize=auto;html=1;" parent="1" source="ZSeSXQQFzYg8Sgqyr61b-1" target="hZU2TV5PLivFhfJGA3uN-3" edge="1">
          <mxGeometry relative="1" as="geometry" />
        </mxCell>
        <mxCell id="ZSeSXQQFzYg8Sgqyr61b-1" value="a+=2" style="rounded=0;whiteSpace=wrap;html=1;" parent="1" vertex="1">
          <mxGeometry x="70" y="365" width="120" height="50" as="geometry" />
        </mxCell>
        <mxCell id="ZSeSXQQFzYg8Sgqyr61b-2" value="start" style="rounded=1;whiteSpace=wrap;html=1;" parent="1" vertex="1">
          <mxGeometry x="220" y="30" width="120" height="60" as="geometry" />
        </mxCell>
        <mxCell id="ZSeSXQQFzYg8Sgqyr61b-3" value="a" style="shape=card;whiteSpace=wrap;html=1;" parent="1" vertex="1">
          <mxGeometry x="230" y="150" width="80" height="60" as="geometry" />
        </mxCell>
        <mxCell id="ZSeSXQQFzYg8Sgqyr61b-4" value="a%2" style="rhombus;whiteSpace=wrap;html=1;" parent="1" vertex="1">
          <mxGeometry x="220" y="250" width="80" height="80" as="geometry" />
        </mxCell>
        <mxCell id="hZU2TV5PLivFhfJGA3uN-5" style="edgeStyle=orthogonalEdgeStyle;rounded=0;orthogonalLoop=1;jettySize=auto;html=1;entryX=0.75;entryY=0;entryDx=0;entryDy=0;" parent="1" source="ZSeSXQQFzYg8Sgqyr61b-5" target="hZU2TV5PLivFhfJGA3uN-3" edge="1">
          <mxGeometry relative="1" as="geometry" />
        </mxCell>
        <mxCell id="ZSeSXQQFzYg8Sgqyr61b-5" value="a++" style="rounded=0;whiteSpace=wrap;html=1;" parent="1" vertex="1">
          <mxGeometry x="320" y="360" width="120" height="60" as="geometry" />
        </mxCell>
        <mxCell id="ZSeSXQQFzYg8Sgqyr61b-6" style="edgeStyle=orthogonalEdgeStyle;rounded=0;orthogonalLoop=1;jettySize=auto;html=1;entryX=0.61;entryY=0.067;entryDx=0;entryDy=0;entryPerimeter=0;" parent="1" source="ZSeSXQQFzYg8Sgqyr61b-2" target="ZSeSXQQFzYg8Sgqyr61b-3" edge="1">
          <mxGeometry relative="1" as="geometry" />
        </mxCell>
        <mxCell id="ZSeSXQQFzYg8Sgqyr61b-7" style="edgeStyle=orthogonalEdgeStyle;rounded=0;orthogonalLoop=1;jettySize=auto;html=1;entryX=0.585;entryY=0.12;entryDx=0;entryDy=0;entryPerimeter=0;" parent="1" source="ZSeSXQQFzYg8Sgqyr61b-3" target="ZSeSXQQFzYg8Sgqyr61b-4" edge="1">
          <mxGeometry relative="1" as="geometry" />
        </mxCell>
        <mxCell id="ZSeSXQQFzYg8Sgqyr61b-8" style="edgeStyle=orthogonalEdgeStyle;rounded=0;orthogonalLoop=1;jettySize=auto;html=1;entryX=0.693;entryY=0.02;entryDx=0;entryDy=0;entryPerimeter=0;" parent="1" source="ZSeSXQQFzYg8Sgqyr61b-4" target="ZSeSXQQFzYg8Sgqyr61b-1" edge="1">
          <mxGeometry relative="1" as="geometry" />
        </mxCell>
        <mxCell id="hZU2TV5PLivFhfJGA3uN-1" value="yes" style="edgeLabel;html=1;align=center;verticalAlign=middle;resizable=0;points=[];" parent="ZSeSXQQFzYg8Sgqyr61b-8" vertex="1" connectable="0">
          <mxGeometry x="0.3109" y="-1" relative="1" as="geometry">
            <mxPoint as="offset" />
          </mxGeometry>
        </mxCell>
        <mxCell id="ZSeSXQQFzYg8Sgqyr61b-9" style="edgeStyle=orthogonalEdgeStyle;rounded=0;orthogonalLoop=1;jettySize=auto;html=1;entryX=0.43;entryY=-0.033;entryDx=0;entryDy=0;entryPerimeter=0;" parent="1" source="ZSeSXQQFzYg8Sgqyr61b-4" target="ZSeSXQQFzYg8Sgqyr61b-5" edge="1">
          <mxGeometry relative="1" as="geometry" />
        </mxCell>
        <mxCell id="hZU2TV5PLivFhfJGA3uN-2" value="no" style="edgeLabel;html=1;align=center;verticalAlign=middle;resizable=0;points=[];" parent="ZSeSXQQFzYg8Sgqyr61b-9" vertex="1" connectable="0">
          <mxGeometry x="0.4239" y="5" relative="1" as="geometry">
            <mxPoint as="offset" />
          </mxGeometry>
        </mxCell>
        <mxCell id="hZU2TV5PLivFhfJGA3uN-7" value="" style="edgeStyle=orthogonalEdgeStyle;rounded=0;orthogonalLoop=1;jettySize=auto;html=1;" parent="1" source="hZU2TV5PLivFhfJGA3uN-3" target="hZU2TV5PLivFhfJGA3uN-6" edge="1">
          <mxGeometry relative="1" as="geometry" />
        </mxCell>
        <mxCell id="hZU2TV5PLivFhfJGA3uN-3" value="answer" style="shape=document;whiteSpace=wrap;html=1;boundedLbl=1;" parent="1" vertex="1">
          <mxGeometry x="190" y="460" width="120" height="80" as="geometry" />
        </mxCell>
        <mxCell id="hZU2TV5PLivFhfJGA3uN-6" value="stop" style="rounded=1;whiteSpace=wrap;html=1;" parent="1" vertex="1">
          <mxGeometry x="190" y="570" width="120" height="60" as="geometry" />
        </mxCell>
      </root>
    </mxGraphModel>
  </diagram>
  <diagram id="nflSB6nmbZT8-h61jL9v" name="hw1">
    <mxGraphModel dx="1050" dy="566" grid="1" gridSize="10" guides="1" tooltips="1" connect="1" arrows="1" fold="1" page="1" pageScale="1" pageWidth="827" pageHeight="1169" math="0" shadow="0">
      <root>
        <mxCell id="0" />
        <mxCell id="1" parent="0" />
        <mxCell id="mZQAsKm6IjsQmpkMSqZJ-28" style="edgeStyle=orthogonalEdgeStyle;rounded=0;orthogonalLoop=1;jettySize=auto;html=1;" edge="1" parent="1" source="mZQAsKm6IjsQmpkMSqZJ-1">
          <mxGeometry relative="1" as="geometry">
            <mxPoint x="270" y="100" as="targetPoint" />
          </mxGeometry>
        </mxCell>
        <mxCell id="mZQAsKm6IjsQmpkMSqZJ-1" value="start" style="rounded=1;whiteSpace=wrap;html=1;" vertex="1" parent="1">
          <mxGeometry x="210" y="40" width="120" height="30" as="geometry" />
        </mxCell>
        <mxCell id="mZQAsKm6IjsQmpkMSqZJ-29" style="edgeStyle=orthogonalEdgeStyle;rounded=0;orthogonalLoop=1;jettySize=auto;html=1;" edge="1" parent="1" source="mZQAsKm6IjsQmpkMSqZJ-2">
          <mxGeometry relative="1" as="geometry">
            <mxPoint x="270" y="160" as="targetPoint" />
          </mxGeometry>
        </mxCell>
        <mxCell id="mZQAsKm6IjsQmpkMSqZJ-2" value="arr{}" style="rounded=0;whiteSpace=wrap;html=1;" vertex="1" parent="1">
          <mxGeometry x="210" y="100" width="120" height="30" as="geometry" />
        </mxCell>
        <mxCell id="mZQAsKm6IjsQmpkMSqZJ-30" style="edgeStyle=orthogonalEdgeStyle;rounded=0;orthogonalLoop=1;jettySize=auto;html=1;" edge="1" parent="1" source="mZQAsKm6IjsQmpkMSqZJ-3" target="mZQAsKm6IjsQmpkMSqZJ-4">
          <mxGeometry relative="1" as="geometry" />
        </mxCell>
        <mxCell id="mZQAsKm6IjsQmpkMSqZJ-3" value="len=arr.lengh" style="rounded=0;whiteSpace=wrap;html=1;" vertex="1" parent="1">
          <mxGeometry x="210" y="160" width="120" height="30" as="geometry" />
        </mxCell>
        <mxCell id="mZQAsKm6IjsQmpkMSqZJ-31" value="" style="edgeStyle=orthogonalEdgeStyle;rounded=0;orthogonalLoop=1;jettySize=auto;html=1;" edge="1" parent="1" source="mZQAsKm6IjsQmpkMSqZJ-6" target="mZQAsKm6IjsQmpkMSqZJ-7">
          <mxGeometry relative="1" as="geometry" />
        </mxCell>
        <mxCell id="mZQAsKm6IjsQmpkMSqZJ-4" value="len&amp;lt;50" style="ellipse;whiteSpace=wrap;html=1;aspect=fixed;" vertex="1" parent="1">
          <mxGeometry x="235" y="220" width="70" height="70" as="geometry" />
        </mxCell>
        <mxCell id="mZQAsKm6IjsQmpkMSqZJ-8" style="edgeStyle=orthogonalEdgeStyle;rounded=0;orthogonalLoop=1;jettySize=auto;html=1;" edge="1" parent="1" source="mZQAsKm6IjsQmpkMSqZJ-7">
          <mxGeometry relative="1" as="geometry">
            <mxPoint x="160" y="250" as="targetPoint" />
          </mxGeometry>
        </mxCell>
        <mxCell id="mZQAsKm6IjsQmpkMSqZJ-18" style="edgeStyle=orthogonalEdgeStyle;rounded=0;orthogonalLoop=1;jettySize=auto;html=1;entryX=0.5;entryY=0;entryDx=0;entryDy=0;" edge="1" parent="1" source="mZQAsKm6IjsQmpkMSqZJ-7" target="mZQAsKm6IjsQmpkMSqZJ-15">
          <mxGeometry relative="1" as="geometry" />
        </mxCell>
        <mxCell id="mZQAsKm6IjsQmpkMSqZJ-7" value="arry.push{number}" style="rounded=0;whiteSpace=wrap;html=1;" vertex="1" parent="1">
          <mxGeometry x="210" y="380" width="120" height="60" as="geometry" />
        </mxCell>
        <mxCell id="mZQAsKm6IjsQmpkMSqZJ-19" value="" style="edgeStyle=orthogonalEdgeStyle;rounded=0;orthogonalLoop=1;jettySize=auto;html=1;" edge="1" parent="1" source="mZQAsKm6IjsQmpkMSqZJ-15" target="mZQAsKm6IjsQmpkMSqZJ-16">
          <mxGeometry relative="1" as="geometry" />
        </mxCell>
        <mxCell id="mZQAsKm6IjsQmpkMSqZJ-15" value="sum=0" style="rounded=0;whiteSpace=wrap;html=1;" vertex="1" parent="1">
          <mxGeometry x="210" y="470" width="120" height="40" as="geometry" />
        </mxCell>
        <mxCell id="mZQAsKm6IjsQmpkMSqZJ-20" style="edgeStyle=orthogonalEdgeStyle;rounded=0;orthogonalLoop=1;jettySize=auto;html=1;" edge="1" parent="1" source="mZQAsKm6IjsQmpkMSqZJ-16" target="mZQAsKm6IjsQmpkMSqZJ-17">
          <mxGeometry relative="1" as="geometry" />
        </mxCell>
        <mxCell id="mZQAsKm6IjsQmpkMSqZJ-16" value="i=o&lt;br&gt;i&amp;lt;=len&lt;br&gt;i++" style="ellipse;whiteSpace=wrap;html=1;aspect=fixed;" vertex="1" parent="1">
          <mxGeometry x="230" y="545" width="80" height="80" as="geometry" />
        </mxCell>
        <mxCell id="mZQAsKm6IjsQmpkMSqZJ-22" style="edgeStyle=orthogonalEdgeStyle;rounded=0;orthogonalLoop=1;jettySize=auto;html=1;" edge="1" parent="1" source="mZQAsKm6IjsQmpkMSqZJ-17" target="mZQAsKm6IjsQmpkMSqZJ-21">
          <mxGeometry relative="1" as="geometry" />
        </mxCell>
        <mxCell id="mZQAsKm6IjsQmpkMSqZJ-43" style="edgeStyle=orthogonalEdgeStyle;rounded=0;orthogonalLoop=1;jettySize=auto;html=1;" edge="1" parent="1" source="mZQAsKm6IjsQmpkMSqZJ-17">
          <mxGeometry relative="1" as="geometry">
            <mxPoint x="170" y="580" as="targetPoint" />
          </mxGeometry>
        </mxCell>
        <mxCell id="mZQAsKm6IjsQmpkMSqZJ-17" value="sum+=arry{i}" style="rounded=0;whiteSpace=wrap;html=1;" vertex="1" parent="1">
          <mxGeometry x="210" y="650" width="120" height="40" as="geometry" />
        </mxCell>
        <mxCell id="mZQAsKm6IjsQmpkMSqZJ-21" value="avg=sum/len" style="rounded=0;whiteSpace=wrap;html=1;" vertex="1" parent="1">
          <mxGeometry x="210" y="720" width="120" height="40" as="geometry" />
        </mxCell>
        <mxCell id="mZQAsKm6IjsQmpkMSqZJ-35" value="" style="edgeStyle=orthogonalEdgeStyle;rounded=0;orthogonalLoop=1;jettySize=auto;html=1;" edge="1" parent="1" source="mZQAsKm6IjsQmpkMSqZJ-25">
          <mxGeometry relative="1" as="geometry">
            <mxPoint x="270" y="980" as="targetPoint" />
          </mxGeometry>
        </mxCell>
        <mxCell id="mZQAsKm6IjsQmpkMSqZJ-40" style="edgeStyle=orthogonalEdgeStyle;rounded=0;orthogonalLoop=1;jettySize=auto;html=1;" edge="1" parent="1" source="mZQAsKm6IjsQmpkMSqZJ-25">
          <mxGeometry relative="1" as="geometry">
            <mxPoint x="190" y="910" as="targetPoint" />
          </mxGeometry>
        </mxCell>
        <mxCell id="mZQAsKm6IjsQmpkMSqZJ-25" value="i=0&lt;br&gt;i&amp;lt;=len&lt;br&gt;i++" style="ellipse;whiteSpace=wrap;html=1;aspect=fixed;" vertex="1" parent="1">
          <mxGeometry x="230" y="870" width="80" height="80" as="geometry" />
        </mxCell>
        <mxCell id="mZQAsKm6IjsQmpkMSqZJ-32" value="" style="edgeStyle=orthogonalEdgeStyle;rounded=0;orthogonalLoop=1;jettySize=auto;html=1;" edge="1" parent="1" source="mZQAsKm6IjsQmpkMSqZJ-4" target="mZQAsKm6IjsQmpkMSqZJ-6">
          <mxGeometry relative="1" as="geometry">
            <mxPoint x="270" y="290" as="sourcePoint" />
            <mxPoint x="260" y="400" as="targetPoint" />
          </mxGeometry>
        </mxCell>
        <mxCell id="mZQAsKm6IjsQmpkMSqZJ-6" value="number" style="shape=card;whiteSpace=wrap;html=1;" vertex="1" parent="1">
          <mxGeometry x="210" y="310" width="120" height="50" as="geometry" />
        </mxCell>
        <mxCell id="mZQAsKm6IjsQmpkMSqZJ-33" value="" style="edgeStyle=orthogonalEdgeStyle;rounded=0;orthogonalLoop=1;jettySize=auto;html=1;" edge="1" parent="1" source="mZQAsKm6IjsQmpkMSqZJ-21" target="mZQAsKm6IjsQmpkMSqZJ-23">
          <mxGeometry relative="1" as="geometry">
            <mxPoint x="260" y="840" as="targetPoint" />
            <mxPoint x="270" y="760" as="sourcePoint" />
          </mxGeometry>
        </mxCell>
        <mxCell id="mZQAsKm6IjsQmpkMSqZJ-34" value="" style="edgeStyle=orthogonalEdgeStyle;rounded=0;orthogonalLoop=1;jettySize=auto;html=1;" edge="1" parent="1" source="mZQAsKm6IjsQmpkMSqZJ-23">
          <mxGeometry relative="1" as="geometry">
            <mxPoint x="270" y="870" as="targetPoint" />
          </mxGeometry>
        </mxCell>
        <mxCell id="mZQAsKm6IjsQmpkMSqZJ-23" value="avg" style="shape=document;whiteSpace=wrap;html=1;boundedLbl=1;" vertex="1" parent="1">
          <mxGeometry x="210" y="790" width="120" height="50" as="geometry" />
        </mxCell>
        <mxCell id="mZQAsKm6IjsQmpkMSqZJ-41" style="edgeStyle=orthogonalEdgeStyle;rounded=0;orthogonalLoop=1;jettySize=auto;html=1;" edge="1" parent="1" source="mZQAsKm6IjsQmpkMSqZJ-36">
          <mxGeometry relative="1" as="geometry">
            <mxPoint x="270" y="1060" as="targetPoint" />
          </mxGeometry>
        </mxCell>
        <mxCell id="mZQAsKm6IjsQmpkMSqZJ-36" value="arry{i}&amp;gt;avg" style="rhombus;whiteSpace=wrap;html=1;" vertex="1" parent="1">
          <mxGeometry x="230" y="980" width="80" height="60" as="geometry" />
        </mxCell>
        <mxCell id="mZQAsKm6IjsQmpkMSqZJ-39" style="edgeStyle=orthogonalEdgeStyle;rounded=0;orthogonalLoop=1;jettySize=auto;html=1;" edge="1" parent="1" source="mZQAsKm6IjsQmpkMSqZJ-37">
          <mxGeometry relative="1" as="geometry">
            <mxPoint x="190" y="910" as="targetPoint" />
          </mxGeometry>
        </mxCell>
        <mxCell id="mZQAsKm6IjsQmpkMSqZJ-37" value="number above avg" style="shape=card;whiteSpace=wrap;html=1;" vertex="1" parent="1">
          <mxGeometry x="210" y="1060" width="120" height="50" as="geometry" />
        </mxCell>
        <mxCell id="mZQAsKm6IjsQmpkMSqZJ-38" value="stop" style="rounded=1;whiteSpace=wrap;html=1;" vertex="1" parent="1">
          <mxGeometry x="210" y="1139" width="120" height="30" as="geometry" />
        </mxCell>
        <mxCell id="mZQAsKm6IjsQmpkMSqZJ-44" value="" style="endArrow=classic;html=1;rounded=0;" edge="1" parent="1">
          <mxGeometry width="50" height="50" relative="1" as="geometry">
            <mxPoint x="170" y="585" as="sourcePoint" />
            <mxPoint x="220" y="585" as="targetPoint" />
          </mxGeometry>
        </mxCell>
        <mxCell id="tiPgBcQ9cWMlfyxfS0eU-1" value="" style="endArrow=classic;html=1;rounded=0;entryX=0;entryY=0.5;entryDx=0;entryDy=0;" edge="1" parent="1" target="mZQAsKm6IjsQmpkMSqZJ-4">
          <mxGeometry width="50" height="50" relative="1" as="geometry">
            <mxPoint x="160" y="250" as="sourcePoint" />
            <mxPoint x="210" y="200" as="targetPoint" />
          </mxGeometry>
        </mxCell>
      </root>
    </mxGraphModel>
  </diagram>
  <diagram id="cGvLuvPoI1fz35n36VRo" name="hw2">
    <mxGraphModel dx="1050" dy="566" grid="1" gridSize="10" guides="1" tooltips="1" connect="1" arrows="1" fold="1" page="1" pageScale="1" pageWidth="827" pageHeight="1169" math="0" shadow="0">
      <root>
        <mxCell id="0" />
        <mxCell id="1" parent="0" />
        <mxCell id="qoZurY9YePJJI78i_f62-2" value="" style="edgeStyle=orthogonalEdgeStyle;rounded=0;orthogonalLoop=1;jettySize=auto;html=1;" edge="1" parent="1" source="FK3L3r2el6KYc74SFS0P-1">
          <mxGeometry relative="1" as="geometry">
            <mxPoint x="260" y="70" as="targetPoint" />
          </mxGeometry>
        </mxCell>
        <mxCell id="FK3L3r2el6KYc74SFS0P-1" value="start" style="rounded=1;whiteSpace=wrap;html=1;" vertex="1" parent="1">
          <mxGeometry x="200" y="30" width="120" height="20" as="geometry" />
        </mxCell>
        <mxCell id="FK3L3r2el6KYc74SFS0P-2" value="arry{}" style="rounded=0;whiteSpace=wrap;html=1;" vertex="1" parent="1">
          <mxGeometry x="200" y="70" width="120" height="30" as="geometry" />
        </mxCell>
        <mxCell id="4-2CVkbmLEXFZ-mHBmEx-1" value="len=arry.lengh" style="rounded=0;whiteSpace=wrap;html=1;" vertex="1" parent="1">
          <mxGeometry x="200" y="130" width="120" height="30" as="geometry" />
        </mxCell>
        <mxCell id="8M7tEbW2MJPcTJtcEeDe-1" value="i=0&lt;br&gt;i&amp;lt;100&lt;br&gt;i++" style="ellipse;whiteSpace=wrap;html=1;aspect=fixed;" vertex="1" parent="1">
          <mxGeometry x="220" y="180" width="80" height="80" as="geometry" />
        </mxCell>
        <mxCell id="Y3YRssvGVu4F6Ln5RlZl-1" value="number" style="shape=card;whiteSpace=wrap;html=1;" vertex="1" parent="1">
          <mxGeometry x="220" y="280" width="80" height="40" as="geometry" />
        </mxCell>
        <mxCell id="mjejS2M0auL8JM_stTvN-3" style="edgeStyle=orthogonalEdgeStyle;rounded=0;orthogonalLoop=1;jettySize=auto;html=1;" edge="1" parent="1" source="Y3YRssvGVu4F6Ln5RlZl-2" target="qoZurY9YePJJI78i_f62-1">
          <mxGeometry relative="1" as="geometry" />
        </mxCell>
        <mxCell id="mjejS2M0auL8JM_stTvN-4" style="edgeStyle=orthogonalEdgeStyle;rounded=0;orthogonalLoop=1;jettySize=auto;html=1;" edge="1" parent="1" source="Y3YRssvGVu4F6Ln5RlZl-2">
          <mxGeometry relative="1" as="geometry">
            <mxPoint x="170" y="210" as="targetPoint" />
            <Array as="points">
              <mxPoint x="171" y="370" />
            </Array>
          </mxGeometry>
        </mxCell>
        <mxCell id="Y3YRssvGVu4F6Ln5RlZl-2" value="arry.push{number}" style="rounded=0;whiteSpace=wrap;html=1;" vertex="1" parent="1">
          <mxGeometry x="200" y="340" width="120" height="60" as="geometry" />
        </mxCell>
        <mxCell id="mjejS2M0auL8JM_stTvN-2" style="edgeStyle=orthogonalEdgeStyle;rounded=0;orthogonalLoop=1;jettySize=auto;html=1;" edge="1" parent="1" source="qoZurY9YePJJI78i_f62-1">
          <mxGeometry relative="1" as="geometry">
            <mxPoint x="260" y="500" as="targetPoint" />
          </mxGeometry>
        </mxCell>
        <mxCell id="qoZurY9YePJJI78i_f62-1" value="sum=0" style="rounded=0;whiteSpace=wrap;html=1;" vertex="1" parent="1">
          <mxGeometry x="200" y="430" width="120" height="40" as="geometry" />
        </mxCell>
        <mxCell id="mjejS2M0auL8JM_stTvN-1" style="edgeStyle=orthogonalEdgeStyle;rounded=0;orthogonalLoop=1;jettySize=auto;html=1;" edge="1" parent="1" source="qoZurY9YePJJI78i_f62-4">
          <mxGeometry relative="1" as="geometry">
            <mxPoint x="260" y="620" as="targetPoint" />
          </mxGeometry>
        </mxCell>
        <mxCell id="qoZurY9YePJJI78i_f62-4" value="i=0&lt;br&gt;i&amp;lt;=len&lt;br&gt;i++" style="ellipse;whiteSpace=wrap;html=1;aspect=fixed;" vertex="1" parent="1">
          <mxGeometry x="220" y="505" width="80" height="80" as="geometry" />
        </mxCell>
        <mxCell id="mjejS2M0auL8JM_stTvN-11" value="" style="edgeStyle=orthogonalEdgeStyle;rounded=0;orthogonalLoop=1;jettySize=auto;html=1;" edge="1" parent="1" source="mjejS2M0auL8JM_stTvN-6" target="mjejS2M0auL8JM_stTvN-10">
          <mxGeometry relative="1" as="geometry" />
        </mxCell>
        <mxCell id="mjejS2M0auL8JM_stTvN-6" value="i%2==0" style="rhombus;whiteSpace=wrap;html=1;" vertex="1" parent="1">
          <mxGeometry x="220" y="620" width="80" height="80" as="geometry" />
        </mxCell>
        <mxCell id="mjejS2M0auL8JM_stTvN-14" style="edgeStyle=orthogonalEdgeStyle;rounded=0;orthogonalLoop=1;jettySize=auto;html=1;" edge="1" parent="1" source="mjejS2M0auL8JM_stTvN-10" target="mjejS2M0auL8JM_stTvN-15">
          <mxGeometry relative="1" as="geometry">
            <mxPoint x="170" y="540" as="targetPoint" />
          </mxGeometry>
        </mxCell>
        <mxCell id="mjejS2M0auL8JM_stTvN-10" value="sum+=arry{i}" style="rounded=0;whiteSpace=wrap;html=1;" vertex="1" parent="1">
          <mxGeometry x="200" y="720" width="120" height="50" as="geometry" />
        </mxCell>
        <mxCell id="mjejS2M0auL8JM_stTvN-13" value="" style="endArrow=classic;html=1;rounded=0;" edge="1" parent="1" target="8M7tEbW2MJPcTJtcEeDe-1">
          <mxGeometry width="50" height="50" relative="1" as="geometry">
            <mxPoint x="170" y="220" as="sourcePoint" />
            <mxPoint x="220" y="170" as="targetPoint" />
          </mxGeometry>
        </mxCell>
        <mxCell id="mjejS2M0auL8JM_stTvN-17" style="edgeStyle=orthogonalEdgeStyle;rounded=0;orthogonalLoop=1;jettySize=auto;html=1;" edge="1" parent="1" source="mjejS2M0auL8JM_stTvN-15">
          <mxGeometry relative="1" as="geometry">
            <mxPoint x="260" y="880" as="targetPoint" />
          </mxGeometry>
        </mxCell>
        <mxCell id="mjejS2M0auL8JM_stTvN-15" value="sum" style="shape=card;whiteSpace=wrap;html=1;" vertex="1" parent="1">
          <mxGeometry x="220" y="800" width="80" height="40" as="geometry" />
        </mxCell>
        <mxCell id="mjejS2M0auL8JM_stTvN-16" value="stop" style="rounded=1;whiteSpace=wrap;html=1;" vertex="1" parent="1">
          <mxGeometry x="200" y="880" width="120" height="40" as="geometry" />
        </mxCell>
      </root>
    </mxGraphModel>
  </diagram>
  <diagram id="ECI9XXJDycHZhFbf9giC" name="hw4">
    <mxGraphModel dx="1050" dy="566" grid="1" gridSize="10" guides="1" tooltips="1" connect="1" arrows="1" fold="1" page="1" pageScale="1" pageWidth="827" pageHeight="1169" math="0" shadow="0">
      <root>
        <mxCell id="0" />
        <mxCell id="1" parent="0" />
        <mxCell id="Y--LoS2P8A10cDOmztgB-2" value="start" style="rounded=1;whiteSpace=wrap;html=1;" vertex="1" parent="1">
          <mxGeometry x="190" y="40" width="120" height="20" as="geometry" />
        </mxCell>
        <mxCell id="Y--LoS2P8A10cDOmztgB-3" value="arry1{}" style="rounded=0;whiteSpace=wrap;html=1;" vertex="1" parent="1">
          <mxGeometry x="190" y="90" width="120" height="30" as="geometry" />
        </mxCell>
        <mxCell id="JiwR0_jB3nkwGcR9aeuJ-3" style="edgeStyle=orthogonalEdgeStyle;rounded=0;orthogonalLoop=1;jettySize=auto;html=1;" edge="1" parent="1" source="Y--LoS2P8A10cDOmztgB-4" target="Y--LoS2P8A10cDOmztgB-5">
          <mxGeometry relative="1" as="geometry" />
        </mxCell>
        <mxCell id="Y--LoS2P8A10cDOmztgB-4" value="len=arry.lengh" style="rounded=0;whiteSpace=wrap;html=1;" vertex="1" parent="1">
          <mxGeometry x="190" y="170" width="120" height="30" as="geometry" />
        </mxCell>
        <mxCell id="JiwR0_jB3nkwGcR9aeuJ-13" style="edgeStyle=orthogonalEdgeStyle;rounded=0;orthogonalLoop=1;jettySize=auto;html=1;" edge="1" parent="1" source="Y--LoS2P8A10cDOmztgB-5" target="Y--LoS2P8A10cDOmztgB-6">
          <mxGeometry relative="1" as="geometry" />
        </mxCell>
        <mxCell id="Y--LoS2P8A10cDOmztgB-5" value="i=0&lt;br&gt;i&amp;lt;20&lt;br&gt;i++" style="ellipse;whiteSpace=wrap;html=1;aspect=fixed;" vertex="1" parent="1">
          <mxGeometry x="210" y="230" width="80" height="80" as="geometry" />
        </mxCell>
        <mxCell id="JiwR0_jB3nkwGcR9aeuJ-14" style="edgeStyle=orthogonalEdgeStyle;rounded=0;orthogonalLoop=1;jettySize=auto;html=1;exitX=0.5;exitY=1;exitDx=0;exitDy=0;exitPerimeter=0;" edge="1" parent="1" source="Y--LoS2P8A10cDOmztgB-6">
          <mxGeometry relative="1" as="geometry">
            <mxPoint x="250" y="350" as="targetPoint" />
          </mxGeometry>
        </mxCell>
        <mxCell id="JiwR0_jB3nkwGcR9aeuJ-15" style="edgeStyle=orthogonalEdgeStyle;rounded=0;orthogonalLoop=1;jettySize=auto;html=1;" edge="1" parent="1" source="Y--LoS2P8A10cDOmztgB-6">
          <mxGeometry relative="1" as="geometry">
            <mxPoint x="250" y="390" as="targetPoint" />
          </mxGeometry>
        </mxCell>
        <mxCell id="Y--LoS2P8A10cDOmztgB-6" value="number" style="shape=card;whiteSpace=wrap;html=1;" vertex="1" parent="1">
          <mxGeometry x="210" y="330" width="80" height="40" as="geometry" />
        </mxCell>
        <mxCell id="JiwR0_jB3nkwGcR9aeuJ-6" style="edgeStyle=orthogonalEdgeStyle;rounded=0;orthogonalLoop=1;jettySize=auto;html=1;" edge="1" parent="1" source="Y--LoS2P8A10cDOmztgB-8">
          <mxGeometry relative="1" as="geometry">
            <mxPoint x="140" y="260" as="targetPoint" />
          </mxGeometry>
        </mxCell>
        <mxCell id="JiwR0_jB3nkwGcR9aeuJ-9" style="edgeStyle=orthogonalEdgeStyle;rounded=0;orthogonalLoop=1;jettySize=auto;html=1;" edge="1" parent="1" source="Y--LoS2P8A10cDOmztgB-8" target="JiwR0_jB3nkwGcR9aeuJ-7">
          <mxGeometry relative="1" as="geometry" />
        </mxCell>
        <mxCell id="Y--LoS2P8A10cDOmztgB-8" value="arry.push{number}" style="rounded=0;whiteSpace=wrap;html=1;" vertex="1" parent="1">
          <mxGeometry x="190" y="390" width="120" height="60" as="geometry" />
        </mxCell>
        <mxCell id="Y--LoS2P8A10cDOmztgB-9" value="" style="endArrow=classic;html=1;rounded=0;entryX=0.04;entryY=0.41;entryDx=0;entryDy=0;entryPerimeter=0;" edge="1" parent="1" target="Y--LoS2P8A10cDOmztgB-5">
          <mxGeometry width="50" height="50" relative="1" as="geometry">
            <mxPoint x="150" y="260" as="sourcePoint" />
            <mxPoint x="200" y="190" as="targetPoint" />
          </mxGeometry>
        </mxCell>
        <mxCell id="JiwR0_jB3nkwGcR9aeuJ-4" value="arry2{}" style="rounded=0;whiteSpace=wrap;html=1;" vertex="1" parent="1">
          <mxGeometry x="190" y="130" width="120" height="30" as="geometry" />
        </mxCell>
        <mxCell id="JiwR0_jB3nkwGcR9aeuJ-10" value="" style="edgeStyle=orthogonalEdgeStyle;rounded=0;orthogonalLoop=1;jettySize=auto;html=1;" edge="1" parent="1" source="JiwR0_jB3nkwGcR9aeuJ-7" target="JiwR0_jB3nkwGcR9aeuJ-8">
          <mxGeometry relative="1" as="geometry" />
        </mxCell>
        <mxCell id="JiwR0_jB3nkwGcR9aeuJ-7" value="i=0&lt;br&gt;1&amp;lt;10&lt;br&gt;1++" style="ellipse;whiteSpace=wrap;html=1;aspect=fixed;" vertex="1" parent="1">
          <mxGeometry x="200" y="480" width="80" height="80" as="geometry" />
        </mxCell>
        <mxCell id="JiwR0_jB3nkwGcR9aeuJ-11" style="edgeStyle=orthogonalEdgeStyle;rounded=0;orthogonalLoop=1;jettySize=auto;html=1;" edge="1" parent="1" source="JiwR0_jB3nkwGcR9aeuJ-8">
          <mxGeometry relative="1" as="geometry">
            <mxPoint x="160" y="520" as="targetPoint" />
          </mxGeometry>
        </mxCell>
        <mxCell id="JiwR0_jB3nkwGcR9aeuJ-8" value="arry1.push{i}" style="rounded=0;whiteSpace=wrap;html=1;" vertex="1" parent="1">
          <mxGeometry x="180" y="580" width="120" height="40" as="geometry" />
        </mxCell>
        <mxCell id="JiwR0_jB3nkwGcR9aeuJ-12" value="" style="endArrow=classic;html=1;rounded=0;entryX=0.005;entryY=0.615;entryDx=0;entryDy=0;entryPerimeter=0;" edge="1" parent="1" target="JiwR0_jB3nkwGcR9aeuJ-7">
          <mxGeometry width="50" height="50" relative="1" as="geometry">
            <mxPoint x="160" y="530" as="sourcePoint" />
            <mxPoint x="210" y="480" as="targetPoint" />
          </mxGeometry>
        </mxCell>
        <mxCell id="vm2I8fMLU171lKUU7KjI-1" value="i=0&lt;br&gt;i&amp;gt;10&lt;br&gt;i&amp;lt;len&lt;br&gt;i++" style="ellipse;whiteSpace=wrap;html=1;aspect=fixed;" vertex="1" parent="1">
          <mxGeometry x="200" y="650" width="80" height="80" as="geometry" />
        </mxCell>
        <mxCell id="vm2I8fMLU171lKUU7KjI-6" style="edgeStyle=orthogonalEdgeStyle;rounded=0;orthogonalLoop=1;jettySize=auto;html=1;" edge="1" parent="1" source="vm2I8fMLU171lKUU7KjI-3">
          <mxGeometry relative="1" as="geometry">
            <mxPoint x="130" y="670" as="targetPoint" />
          </mxGeometry>
        </mxCell>
        <mxCell id="vm2I8fMLU171lKUU7KjI-3" value="arry2.push{i}" style="rounded=0;whiteSpace=wrap;html=1;" vertex="1" parent="1">
          <mxGeometry x="170" y="750" width="120" height="40" as="geometry" />
        </mxCell>
        <mxCell id="vm2I8fMLU171lKUU7KjI-4" value="push2+push1" style="shape=card;whiteSpace=wrap;html=1;" vertex="1" parent="1">
          <mxGeometry x="150" y="820" width="150" height="50" as="geometry" />
        </mxCell>
        <mxCell id="vm2I8fMLU171lKUU7KjI-5" value="stop" style="rounded=1;whiteSpace=wrap;html=1;" vertex="1" parent="1">
          <mxGeometry x="165" y="890" width="120" height="40" as="geometry" />
        </mxCell>
        <mxCell id="vm2I8fMLU171lKUU7KjI-7" value="" style="endArrow=classic;html=1;rounded=0;entryX=0.035;entryY=0.35;entryDx=0;entryDy=0;entryPerimeter=0;" edge="1" parent="1" target="vm2I8fMLU171lKUU7KjI-1">
          <mxGeometry width="50" height="50" relative="1" as="geometry">
            <mxPoint x="130" y="680" as="sourcePoint" />
            <mxPoint x="180" y="630" as="targetPoint" />
          </mxGeometry>
        </mxCell>
      </root>
    </mxGraphModel>
  </diagram>
  <diagram id="MSFH5Eyuk3D-spoWJ8El" name="hw5">
    <mxGraphModel dx="1050" dy="566" grid="1" gridSize="10" guides="1" tooltips="1" connect="1" arrows="1" fold="1" page="1" pageScale="1" pageWidth="827" pageHeight="1169" math="0" shadow="0">
      <root>
        <mxCell id="0" />
        <mxCell id="1" parent="0" />
      </root>
    </mxGraphModel>
  </diagram>
</mxfile>
